<svg xmlns="http://www.w3.org/2000/svg" xmlns:xlink="http://www.w3.org/1999/xlink" viewBox="0 0 166.21 164.39"><defs><linearGradient id="linear-gradient-32" x1="80.29" y1="9.97" x2="110.16" y2="27.92" gradientUnits="userSpaceOnUse"><stop offset="0" stop-color="#3c5185"/><stop offset=".22" stop-color="#41588f"/><stop offset=".64" stop-color="#48629e"/><stop offset="1" stop-color="#4a65a3"/></linearGradient><linearGradient id="linear-gradient" x1="105.41" y1="163.84" x2="59.22" y2="13.24" gradientUnits="userSpaceOnUse"><stop offset=".14" stop-color="#fff"/><stop offset="1" stop-color="#e1ebf7"/></linearGradient><linearGradient id="linear-gradient-2" x1="72.21" y1="56.63" x2="102.11" y2="56.63" gradientTransform="rotate(30 87.153 56.627)" gradientUnits="userSpaceOnUse"><stop offset="0" stop-color="#f4f9fd"/><stop offset=".21" stop-color="#e6f1fa"/><stop offset=".85" stop-color="#b2d2f1"/><stop offset="1" stop-color="#a5cbef"/></linearGradient><linearGradient id="linear-gradient-3" x1="70.26" y1="57.12" x2="100.16" y2="57.12" gradientTransform="rotate(30 85.208 57.129)" gradientUnits="userSpaceOnUse"><stop offset="0" stop-color="#fff"/><stop offset=".24" stop-color="#eff8fe"/><stop offset=".72" stop-color="#c4e5fc"/><stop offset="1" stop-color="#a8d9fb"/></linearGradient><linearGradient id="linear-gradient-4" x1="257.84" y1="55.87" x2="294.1" y2="55.87" gradientTransform="translate(-227.15)" gradientUnits="userSpaceOnUse"><stop offset="0" stop-color="#4a65a3"/><stop offset=".4" stop-color="#445c95"/><stop offset="1" stop-color="#3c5185"/></linearGradient><linearGradient id="linear-gradient-5" x1="65.06" y1="79.93" x2="30.84" y2="32.1" xlink:href="#linear-gradient-4"/><linearGradient id="linear-gradient-6" x1="43.08" y1="55.87" x2="54.55" y2="55.87" gradientUnits="userSpaceOnUse"><stop offset=".15" stop-color="#ff9800"/><stop offset="1" stop-color="#ffc107"/></linearGradient><linearGradient id="linear-gradient-7" x1="114.68" y1="55" x2="144.47" y2="55" gradientUnits="userSpaceOnUse"><stop offset="0" stop-color="#3c5185"/><stop offset=".6" stop-color="#445c95"/><stop offset="1" stop-color="#4a65a3"/></linearGradient><linearGradient id="linear-gradient-8" x1="112.71" y1="55.57" x2="141.88" y2="55.57" xlink:href="#linear-gradient-4"/><linearGradient id="linear-gradient-9" x1="115.73" y1="55.89" x2="137.98" y2="55.89" xlink:href="#linear-gradient-6"/><linearGradient id="linear-gradient-10" x1="349.84" y1="104.06" x2="386.1" y2="104.06" gradientTransform="translate(-227.15)" xlink:href="#linear-gradient-2"/><linearGradient id="linear-gradient-11" x1="157.06" y1="128.12" x2="122.84" y2="80.3" gradientUnits="userSpaceOnUse"><stop offset="0" stop-color="#a8d9fb"/><stop offset=".28" stop-color="#c4e5fc"/><stop offset=".76" stop-color="#eff8fe"/><stop offset="1" stop-color="#fff"/></linearGradient><linearGradient id="linear-gradient-12" x1="-.45" y1="96.56" x2="5.2" y2="96.56" gradientTransform="matrix(-1 0 0 1 136.48 0)" xlink:href="#linear-gradient-6"/><linearGradient id="linear-gradient-13" x1="122.68" y1="115.13" x2="157.43" y2="115.13" gradientUnits="userSpaceOnUse"><stop offset="0" stop-color="#3c5185"/><stop offset=".13" stop-color="#41588e"/><stop offset=".69" stop-color="#5573b1"/><stop offset="1" stop-color="#5d7dbe"/></linearGradient><linearGradient id="linear-gradient-14" x1="64.43" y1="81.89" x2="51.53" y2="64.33" gradientUnits="userSpaceOnUse"><stop offset="0" stop-color="#a5cbef"/><stop offset=".19" stop-color="#b2d2f1"/><stop offset="1" stop-color="#e6f1fa"/></linearGradient><linearGradient id="linear-gradient-15" x1="130.78" y1="147.68" x2="107.13" y2="114.71" xlink:href="#linear-gradient-14"/><linearGradient id="linear-gradient-16" x1="41.4" y1="94.96" x2="141.97" y2="94.96" xlink:href="#linear-gradient-14"/><linearGradient id="linear-gradient-17" x1="68.38" y1="151.81" x2="53.96" y2="115.52" gradientUnits="userSpaceOnUse"><stop offset="0" stop-color="#ffc107"/><stop offset=".85" stop-color="#ff9800"/></linearGradient><linearGradient id="linear-gradient-18" x1="68.41" y1="153.31" x2="50.03" y2="118.89" xlink:href="#linear-gradient-6"/><linearGradient id="linear-gradient-19" x1="49.12" y1="22.33" x2="71.82" y2="22.33" gradientTransform="rotate(30 60.466 22.338)" xlink:href="#linear-gradient-7"/><linearGradient id="linear-gradient-20" x1="47.64" y1="22.7" x2="70.34" y2="22.7" xlink:href="#linear-gradient-4"/><linearGradient id="linear-gradient-21" x1="191.08" y1="79.51" x2="194.42" y2="79.51" gradientTransform="matrix(-1 0 0 1 338.48 0)" xlink:href="#linear-gradient-4"/><linearGradient id="linear-gradient-22" x1="307.05" y1="72.01" x2="310.39" y2="72.01" gradientTransform="matrix(-1 0 0 1 338.48 0)" xlink:href="#linear-gradient-4"/><linearGradient id="linear-gradient-23" x1="228.07" y1="61.07" x2="231.41" y2="61.07" gradientTransform="matrix(-1 0 0 1 338.48 0)" xlink:href="#linear-gradient-4"/><linearGradient id="linear-gradient-24" x1="257.63" y1="26.11" x2="260.97" y2="26.11" gradientTransform="matrix(-1 0 0 1 338.48 0)" xlink:href="#linear-gradient-4"/><linearGradient id="linear-gradient-25" x1="183.42" y1="70.82" x2="188.78" y2="70.82" gradientTransform="matrix(-1 0 0 1 338.48 0)" xlink:href="#linear-gradient-4"/><linearGradient id="linear-gradient-26" x1="213.12" y1="26.11" x2="218.48" y2="26.11" gradientTransform="matrix(-1 0 0 1 338.48 0)" xlink:href="#linear-gradient-4"/><linearGradient id="linear-gradient-27" x1="313.97" y1="48.63" x2="319.34" y2="48.63" gradientTransform="matrix(-1 0 0 1 338.48 0)" xlink:href="#linear-gradient-4"/><linearGradient id="linear-gradient-28" x1="322.44" y1="68.74" x2="327.81" y2="68.74" gradientTransform="matrix(-1 0 0 1 338.48 0)" xlink:href="#linear-gradient-4"/><linearGradient id="linear-gradient-29" x1="235.25" y1="43.55" x2="240.61" y2="43.55" gradientTransform="matrix(-1 0 0 1 338.48 0)" xlink:href="#linear-gradient-4"/><linearGradient id="linear-gradient-30" x1="174.15" y1="87.47" x2="181.06" y2="87.47" gradientTransform="matrix(-1 0 0 1 338.48 0)" xlink:href="#linear-gradient-4"/><linearGradient id="linear-gradient-31" x1="80.14" y1="10.22" x2="110.01" y2="28.16" gradientUnits="userSpaceOnUse"><stop offset="0" stop-color="#4a65a3"/><stop offset=".36" stop-color="#48629e"/><stop offset=".78" stop-color="#41588f"/><stop offset="1" stop-color="#3c5185"/></linearGradient><style>.cls-57{opacity:.3}.cls-44{fill:#3c5185}.cls-57{fill:#2d3d64}.cls-62{fill:#fff}</style></defs><g id="Layer_2" data-name="Layer 2"><g id="Cloud_Storage" data-name="Cloud Storage"><path d="M166.21 91.27c0 42.44-41.91 72.35-84.36 72.35S0 133.71 0 91.27 40.41 9.41 82.85 9.41s83.36 39.41 83.36 81.86z" fill="url(#linear-gradient)"/><g opacity=".3"><path opacity=".02" fill="#3c5185" d="M31.14 100.65l-19.71 11.16 88.65 52.35 19.73-12.31-88.67-51.2z"/><path opacity=".05" fill="#3c5185" d="M31.14 100.65L11.82 111.6l88.63 52.34 19.36-12.09-88.67-51.2z"/><path opacity=".07" fill="#3c5185" d="M31.14 100.65L12.2 111.38l88.61 52.34 19-11.87-88.67-51.2z"/><path opacity=".1" fill="#3c5185" d="M31.14 100.65l-18.55 10.51 88.58 52.33 18.64-11.64-88.67-51.2z"/><path opacity=".12" fill="#3c5185" d="M31.14 100.65l-18.17 10.29 88.56 52.33 18.28-11.42-88.67-51.2z"/><path opacity=".15" fill="#3c5185" d="M31.14 100.65l-17.78 10.07 88.53 52.33 17.92-11.2-88.67-51.2z"/><path opacity=".17" fill="#3c5185" d="M31.14 100.65l-17.4 9.85 88.52 52.32 17.55-10.97-88.67-51.2z"/><path opacity=".2" fill="#3c5185" d="M31.14 100.65l-17.01 9.63 88.49 52.32 17.19-10.75-88.67-51.2z"/><path opacity=".22" fill="#3c5185" d="M31.14 100.65l-16.63 9.42 88.47 52.31 16.83-10.53-88.67-51.2z"/><path opacity=".24" fill="#3c5185" d="M31.14 100.65l-16.24 9.2 88.44 52.31 16.47-10.31-88.67-51.2z"/><path opacity=".27" fill="#3c5185" d="M31.14 100.65l-15.86 8.98 88.42 52.3 16.11-10.08-88.67-51.2z"/><path opacity=".29" fill="#3c5185" d="M31.14 100.65l-15.47 8.76 88.4 52.3 15.74-9.86-88.67-51.2z"/><path opacity=".32" fill="#3c5185" d="M31.14 100.65l-15.09 8.54 88.38 52.3 15.38-9.64-88.67-51.2z"/><path opacity=".34" fill="#3c5185" d="M31.14 100.65l-14.7 8.32 88.35 52.29 15.02-9.41-88.67-51.2z"/><path opacity=".37" fill="#3c5185" d="M31.14 100.65l-14.32 8.1 88.33 52.29 14.66-9.19-88.67-51.2z"/><path opacity=".39" fill="#3c5185" d="M31.14 100.65l-13.93 7.88 88.3 52.29 14.3-8.97-88.67-51.2z"/><path opacity=".41" fill="#3c5185" d="M31.14 100.65l-13.55 7.67 88.29 52.27 13.93-8.74-88.67-51.2z"/><path opacity=".44" fill="#3c5185" d="M31.14 100.65l-13.16 7.45 88.26 52.27 13.57-8.52-88.67-51.2z"/><path opacity=".46" fill="#3c5185" d="M31.14 100.65l-12.78 7.23 88.24 52.27 13.21-8.3-88.67-51.2z"/><path opacity=".49" fill="#3c5185" d="M31.14 100.65l-12.39 7.01 88.21 52.27 12.85-8.08-88.67-51.2z"/><path opacity=".51" fill="#3c5185" d="M31.14 100.65l-12.01 6.79 88.19 52.26 12.49-7.85-88.67-51.2z"/><path opacity=".54" fill="#3c5185" d="M31.14 100.65l-11.62 6.57 88.17 52.26 12.12-7.63-88.67-51.2z"/><path opacity=".56" fill="#3c5185" d="M31.14 100.65L19.9 107l88.15 52.26 11.76-7.41-88.67-51.2z"/><path opacity=".59" fill="#3c5185" d="M31.14 100.65l-10.85 6.14 88.12 52.24 11.4-7.18-88.67-51.2z"/><path opacity=".61" fill="#3c5185" d="M31.14 100.65l-10.47 5.92 88.1 52.24 11.04-6.96-88.67-51.2z"/><path opacity=".63" fill="#3c5185" d="M31.14 100.65l-10.08 5.7 88.07 52.24 10.68-6.74-88.67-51.2z"/><path opacity=".66" fill="#3c5185" d="M31.14 100.65l-9.7 5.48 88.05 52.23 10.32-6.51-88.67-51.2z"/><path opacity=".68" fill="#3c5185" d="M31.14 100.65l-9.31 5.26 88.03 52.23 9.95-6.29-88.67-51.2z"/><path opacity=".71" fill="#3c5185" d="M31.14 100.65l-8.93 5.04 88.01 52.23 9.59-6.07-88.67-51.2z"/><path opacity=".73" fill="#3c5185" d="M31.14 100.65l-8.54 4.82 87.98 52.22 9.23-5.84-88.67-51.2z"/><path opacity=".76" fill="#3c5185" d="M31.14 100.65l-8.16 4.6 87.96 52.22 8.87-5.62-88.67-51.2z"/><path opacity=".78" fill="#3c5185" d="M31.14 100.65l-7.77 4.39 87.93 52.21 8.51-5.4-88.67-51.2z"/><path opacity=".8" fill="#3c5185" d="M31.14 100.65l-7.39 4.17 87.92 52.21 8.14-5.18-88.67-51.2z"/><path opacity=".83" fill="#3c5185" d="M31.14 100.65l-7 3.95 87.89 52.2 7.78-4.95-88.67-51.2z"/><path opacity=".85" fill="#3c5185" d="M31.14 100.65l-6.62 3.73 87.87 52.2 7.42-4.73-88.67-51.2z"/><path opacity=".88" fill="#3c5185" d="M31.14 100.65l-6.23 3.51 87.84 52.19 7.06-4.5-88.67-51.2z"/><path opacity=".9" fill="#3c5185" d="M31.14 100.65l-5.85 3.29 87.82 52.19 6.7-4.28-88.67-51.2z"/><path opacity=".93" fill="#3c5185" d="M31.14 100.65l-5.46 3.07 87.79 52.19 6.34-4.06-88.67-51.2z"/><path opacity=".95" fill="#3c5185" d="M31.14 100.65l-5.08 2.85 87.78 52.19 5.97-3.84-88.67-51.2z"/><path opacity=".98" fill="#3c5185" d="M31.14 100.65l-4.69 2.64 87.75 52.17 5.61-3.61-88.67-51.2z"/><path class="cls-44" d="M31.14 100.65l-4.31 2.42 87.73 52.17 5.25-3.39-88.67-51.2z"/></g><ellipse cx="87.16" cy="56.63" rx="12.21" ry="21.14" transform="rotate(-30 87.165 56.636)" fill="url(#linear-gradient-2)"/><ellipse cx="85.21" cy="57.12" rx="12.21" ry="21.14" transform="rotate(-30 85.216 57.114)" fill="url(#linear-gradient-3)"/><path class="cls-44" d="M81.81 45.57v13.3a5 5 0 00-2-1.72c-1.48-.66-2.54.24-2.37 2a5.89 5.89 0 003 4.4c1.46.65 2.5-.21 2.38-1.92v-11.8L88.71 54v9.82a5.15 5.15 0 00-2-1.75c-1.49-.65-2.55.25-2.37 2a5.86 5.86 0 003 4.4c1.41.62 2.43-.16 2.38-1.76V51.3z"/><path d="M31.2 32.71l-.13.18a1.94 1.94 0 00-.38 1.16V58.7a3.62 3.62 0 001.64 2.84l31.41 18.08a2.13 2.13 0 001.4.25h.06a2.07 2.07 0 001.74-2v-25A3.61 3.61 0 0065.3 50L34 32.12a2.14 2.14 0 00-2.8.59z" fill="url(#linear-gradient-4)"/><path d="M32.33 32.94c-.9-.52-1.64-.09-1.64 1v24.63a3.62 3.62 0 001.64 2.84l31.46 18.16c.9.52 1.64.1 1.64-.94V53.76a3.63 3.63 0 00-1.65-2.84z" fill="url(#linear-gradient-5)"/><path d="M53.81 61.54l-8.52.88c-1 .1-2.21-1.2-2.21-2.33v-9.84c0-1.14 1.23-1.27 2.21-.23l8.52 9c1 1 1 2.46 0 2.56l-8.52.88c-1 .1-2.21-1.2-2.21-2.33v-9.88c0-1.14 1.23-1.27 2.21-.23l8.52 9c.99.98.99 2.42 0 2.52z" fill="url(#linear-gradient-6)"/><path d="M144.47 63.44c0-9.46-6.7-21.08-14.9-25.81-3.81-2.2-7.29-2.53-9.93-1.32a6.7 6.7 0 00-1.07.61l-2.42 1.38.36.77a13 13 0 00-1.81 7.16 30.19 30.19 0 004.12 14.22v6.92a.94.94 0 001 1h5a24.7 24.7 0 004.75 3.63 15.12 15.12 0 005 1.88l.06.47 2-.34a7.84 7.84 0 002-.35c3.54-1.06 5.84-4.66 5.84-10.22z" fill="url(#linear-gradient-7)"/><path d="M127.29 38.72c-8-4.63-14.58-.84-14.58 8.42a29.65 29.65 0 004 13.93v6.78a.93.93 0 00.93.93h4.91a24.34 24.34 0 004.71 3.63c8 4.63 14.59.84 14.59-8.42s-6.53-20.64-14.56-25.27z" fill="url(#linear-gradient-8)"/><path d="M126.85 42.54c-6.12-3.68-11.12-.67-11.12 6.68s5 16.36 11.12 20 11.15.7 11.15-6.65-5-16.36-11.15-20.03z" fill="url(#linear-gradient-9)"/><path class="cls-44" d="M120.32 51.86c-.74-.42-1.34-.07-1.34.78a3 3 0 001.34 2.36c.74.43 1.35.08 1.35-.77a3 3 0 00-1.35-2.37zm6.24 3.47c-.74-.43-1.35-.08-1.35.77a3 3 0 001.35 2.33c.73.43 1.34.08 1.34-.78a3 3 0 00-1.34-2.32zm6.44 3.46c-.73-.42-1.34-.07-1.34.78a3 3 0 001.34 2.32c.74.43 1.35.08 1.35-.77a3 3 0 00-1.35-2.33z"/><path d="M123.2 80.91l-.13.18a1.93 1.93 0 00-.39 1.16v24.64a3.64 3.64 0 001.64 2.84l31.42 18.09a2.1 2.1 0 001.39.25h.07a2.08 2.08 0 001.74-2V101a3.64 3.64 0 00-1.64-2.84L126 80.31a2.14 2.14 0 00-2.8.6z" fill="url(#linear-gradient-10)"/><path d="M124.33 81.13c-.91-.51-1.65-.08-1.65 1v24.67a3.66 3.66 0 001.64 2.85l31.47 18.16c.9.52 1.64.09 1.64-1V102a3.61 3.61 0 00-1.65-2.84z" fill="url(#linear-gradient-11)"/><path d="M134.11 93.26c-1.56-.89-2.83-.18-2.83 1.58a6.55 6.55 0 002.83 5c1.55 1 2.82.25 2.82-1.58a6.35 6.35 0 00-2.82-5z" fill="url(#linear-gradient-12)"/><path d="M150.64 104.45l-7.75 5.72-3.21-6.11-7.7 3.25-9.3-5v4.49a3.66 3.66 0 001.64 2.85l31.47 18.16c.9.52 1.64.09 1.64-1v-10.38z" fill="url(#linear-gradient-13)"/><path class="cls-57" d="M150.67 104.51v7.67l-1.92-2.65-2.65 1.85v-.71l-3.21-.5 7.75-5.72.03.06zm-10.99-.45v1.86h-1.61l-.32 1.39-.82-.99-4.96.99 7.71-3.25z"/><path class="cls-57" d="M124.32 109.73l20.58 11.84c-2.53-7.49-7.87-14.77-14-18.33-.44-.25-.87-.47-1.3-.67l-.22-.12c0-.61.08-1.23.08-1.88A47 47 0 00124.82 80a2.11 2.11 0 00-1.62.87l-.13.18a1.19 1.19 0 00-.37 1v24.8a3.64 3.64 0 001.62 2.88zM66.94 77.81v-21a28.08 28.08 0 00-20.65 5.46l-4.42 3.35a.11.11 0 000 .08 10.07 10.07 0 00-1.67.33l23.54 13.59a2.13 2.13 0 001.4.25h.06a2.07 2.07 0 001.74-2.06zm-5-1.1l-.25.14.25-.14zM85.6 63c-.49.35-1 .72-1.45 1.09a12.82 12.82 0 00-1.05-1.06A27 27 0 0071.82 57a36.38 36.38 0 006.06 10.9s4.67 4.95 7.33 6.48c3.68 2.13 7.05 2.51 9.66 1.46 4.33-.54 7.24-4.33 7.24-10.57a24.64 24.64 0 00-.84-6.14 20.6 20.6 0 00-5.58-.78c-3.58 0-6.34 2.03-10.09 4.65z"/><path d="M83.79 69.22s-.01.01 0 0z" fill="none"/><path d="M82.6 68.06a27.77 27.77 0 00-35.31-1.27l-4.42 3.35c-.74.67 9.61 4.76 9.72 5.8a8.86 8.86 0 00-11.19 8.54 15.92 15.92 0 002.08 7.87l40.28-23.11a13.76 13.76 0 00-1.16-1.18z" fill="url(#linear-gradient-14)"/><path d="M141.81 129.74c-1-9.36-7.58-20-15.44-24.5-.44-.25-.87-.47-1.3-.67l-38.35 22 33.47 25.35s14.15-7.66 17.11-9.54a6.71 6.71 0 00.71-.47 7.94 7.94 0 001.52-1.44 9.89 9.89 0 002.43-6.54v-4.08z" fill="url(#linear-gradient-15)"/><path d="M124.85 104.45c0-.61.08-1.23.08-1.88 0-13.93-5.79-26.43-14.93-33.6-4.6-3.61-9.56-5.62-14.81-5.62-3.58 0-6.34 2-10.09 4.68-1 .74-2 1.6-3.14 2.24L43.48 92.35a16 16 0 005.87 5.91l37.37 28.31 38.35-22z" fill="url(#linear-gradient-16)"/><path class="cls-62" d="M122.46 141.21c-1-9.37-7.58-20-15.44-24.5-.52-.3-1-.56-1.52-.79 0-.62.08-1.23.08-1.88 0-13.94-9.87-31-21.94-38-9.71-5.61-18-3-20.86 5.48A36.48 36.48 0 0053 72.84c-11-6.32-19.92-1.15-19.92 11.51a28.82 28.82 0 00.18 3.05A8.86 8.86 0 0022.05 96a15.9 15.9 0 008 13.77l77.59 44.38a9.94 9.94 0 0010.36-.25c.25-.14.48-.31.71-.47a8.32 8.32 0 001.52-1.45 9.88 9.88 0 002.43-6.54v-4.07z"/><path d="M77 136.61v-9.19a6.64 6.64 0 00-3-5.21l-2.92-1.65v-5.12c0-7.43-1.64-12.15-4.87-14a4.93 4.93 0 00-5-.14c-1.24.71-3.32 2.7-3.32 8v4.7a7.44 7.44 0 00-6 2.44 2.26 2.26 0 00-.58 1.51v4zm-16.4-27.36c0-2.77.72-4.85 1.93-5.55a2.23 2.23 0 012.24.14c2.25 1.3 3.48 5.42 3.48 11.6V119L61 114.89c-.13-.07-.27-.11-.4-.18z" fill="#a5cbef" opacity=".5"/><path d="M48.82 118.41a7.44 7.44 0 019.18-1.52l13 7.32a6.64 6.64 0 013 5.21v17.13a5.35 5.35 0 01-5.68 5.34h-.57a3.11 3.11 0 01-1.3-.38l-15.17-8.61a6.62 6.62 0 01-3-5.2v-17.78a2.26 2.26 0 01.54-1.51z" fill="url(#linear-gradient-17)"/><path d="M48.24 120.74c0-1.92 1.37-2.72 3-1.77l14.81 8.38a6.64 6.64 0 013 5.21v16.9c0 1.91-1.37 2.71-3 1.77l-14.81-8.39a6.61 6.61 0 01-3-5.2z" fill="url(#linear-gradient-18)"/><path class="cls-44" d="M58.68 128.82c-1.74-1-3.16-.21-3.16 1.77a7.37 7.37 0 003.16 5.58c1.75 1.08 3.17.28 3.17-1.78a7.08 7.08 0 00-3.17-5.57zm9.37-3.7v-7.68c0-7.43-1.64-12.15-4.87-14a4.93 4.93 0 00-5-.14c-1.24.71-3.32 2.7-3.32 8v7.54a.7.7 0 00.39.53 2.18 2.18 0 001.93 0 .7.7 0 00.39-.53v-7.54c0-2.77.72-4.85 1.93-5.55a2.23 2.23 0 012.24.14c2.25 1.3 3.48 5.42 3.48 11.6v7.66a.67.67 0 00.41.6 2.2 2.2 0 002 0 .69.69 0 00.42-.63z"/><path class="cls-44" d="M56.77 130.77v8.83l3.83 2.21v-8.83l-3.83-2.21zm-6.87 16.5a3.64 3.64 0 01-.57 0 .69.69 0 01-.61-.77.71.71 0 01.78-.62 3.07 3.07 0 00.91 0 2.46 2.46 0 00.76-.27 2.31 2.31 0 00.62-.51 3.19 3.19 0 00.5-.77 4.7 4.7 0 00.34-1.06 7.21 7.21 0 00.12-1.35 9.24 9.24 0 00-.13-1.54 12 12 0 00-.36-1.59.7.7 0 011.34-.4 14.92 14.92 0 01.4 1.77 10.73 10.73 0 01.15 1.76 8.23 8.23 0 01-.15 1.61 6.2 6.2 0 01-.44 1.38 4.39 4.39 0 01-.72 1.12 4 4 0 01-1 .8 4.1 4.1 0 01-2 .49zm-5.61-3.19a.71.71 0 01-.52-.23 16.83 16.83 0 01-1.17-1.45 18.69 18.69 0 01-1-1.59q-.46-.83-.84-1.68a.7.7 0 011.29-.56 14.88 14.88 0 00.77 1.55 17.26 17.26 0 00.94 1.46 12.7 12.7 0 001.07 1.33.7.7 0 01-.05 1 .71.71 0 01-.49.17zm-3.52-6.18a.69.69 0 01-.66-.5 12.84 12.84 0 01-.41-1.74 10 10 0 01-.14-1.7 7.91 7.91 0 01.14-1.57 6 6 0 01.44-1.34 4.48 4.48 0 01.73-1.1 3.71 3.71 0 011-.78 3.93 3.93 0 011.19-.43 4.73 4.73 0 011.31-.06 6.53 6.53 0 011.4.31 8.53 8.53 0 011.45.67 10.7 10.7 0 011.42 1 14.86 14.86 0 011.31 1.23.71.71 0 010 1 .69.69 0 01-1 0 13.3 13.3 0 00-1.17-1.1 8.82 8.82 0 00-1.23-.86 6.71 6.71 0 00-1.2-.55 4.94 4.94 0 00-1.08-.25 4 4 0 00-.92 0 3 3 0 00-.77.28 2.52 2.52 0 00-.63.51 2.86 2.86 0 00-.49.75 4.21 4.21 0 00-.34 1A6.5 6.5 0 0041 134a9.67 9.67 0 00.13 1.48 11.51 11.51 0 00.36 1.55.7.7 0 01-.46.88zM36 157.92a5.32 5.32 0 01-.69 0 7.24 7.24 0 01-1.69-.43 10.4 10.4 0 01-1.77-.88 14.07 14.07 0 01-1.72-1.27 18 18 0 01-1.6-1.56 19.52 19.52 0 01-1.42-1.78.7.7 0 111.13-.82 17 17 0 001.34 1.66 15.28 15.28 0 001.47 1.44 13.06 13.06 0 001.55 1.14 9.46 9.46 0 001.52.77 6.09 6.09 0 001.37.34 4.21 4.21 0 001.18 0 3.33 3.33 0 001-.35 3.26 3.26 0 00.82-.67 4 4 0 00.64-1 5.78 5.78 0 00.43-1.35 9 9 0 00.15-1.7 11.75 11.75 0 00-.16-1.92 15 15 0 00-.45-2 19.08 19.08 0 00-.73-2 19.5 19.5 0 00-1-1.94c-.36-.63-.75-1.24-1.16-1.82a19.71 19.71 0 00-1.34-1.63.7.7 0 011-.95c.5.55 1 1.14 1.44 1.76a21.59 21.59 0 011.25 2 21 21 0 011 2.07 19.91 19.91 0 01.79 2.15 17.87 17.87 0 01.49 2.18 13.24 13.24 0 01.18 2.14 10.23 10.23 0 01-.18 2 7.43 7.43 0 01-.53 1.67 5.25 5.25 0 01-.87 1.34 4.52 4.52 0 01-1.18 1 4.68 4.68 0 01-1.43.5 4.43 4.43 0 01-.83-.09zm-10.54-9.55a.71.71 0 01-.65-.43 21.67 21.67 0 01-.78-2.12.7.7 0 011.34-.4 18.19 18.19 0 00.73 2 .71.71 0 01-.36.92.74.74 0 01-.27.03zm-.76-9.29a.82.82 0 01-.3-.07.7.7 0 01-.33-.93 5.07 5.07 0 01.87-1.31 4.57 4.57 0 011.17-.94 4.65 4.65 0 011.42-.52 5.6 5.6 0 011.59-.07.71.71 0 01.63.77.7.7 0 01-.76.63 4.25 4.25 0 00-1.19 0 3.33 3.33 0 00-1 .37 3.46 3.46 0 00-.83.65 4.25 4.25 0 00-.64 1 .7.7 0 01-.62.42z"/><ellipse cx="60.47" cy="22.33" rx="9.27" ry="16.05" transform="rotate(-30 60.478 22.325)" fill="url(#linear-gradient-19)"/><path d="M59 9.6c-6.25-3.6-11.36-.66-11.36 6.55S52.75 32.2 59 35.8s11.35.66 11.35-6.55S65.24 13.2 59 9.6z" fill="url(#linear-gradient-20)"/><path class="cls-62" d="M62.38 27.19c.25.14.47 0 .66-.32a3.29 3.29 0 00.29-1.58 9.4 9.4 0 00-1.13-4.42 7.87 7.87 0 00-3-3.22 3 3 0 00-3.2-.26 3.29 3.29 0 00-1.3 3 8.77 8.77 0 001.22 4.34 8.32 8.32 0 003 3.18 2.46 2.46 0 002.48.22l.6 1.49a2.45 2.45 0 01-1.43.1 5 5 0 01-1.63-.58 10.68 10.68 0 01-3.91-4 10.73 10.73 0 01-1.57-5.4c0-1.81.55-3 1.66-3.68s2.43-.52 4 .36A10.5 10.5 0 0163 20.46a11 11 0 011.57 5.48 3.75 3.75 0 01-.64 2.48 1.21 1.21 0 01-1.67.13 3.14 3.14 0 01-1-.93 3.85 3.85 0 01-.61-1.28 1.53 1.53 0 01-1.95 0 5.71 5.71 0 01-2.05-2.2 6.24 6.24 0 01-.87-3.12 2.73 2.73 0 01.79-2.24c.52-.42 1.21-.39 2.07.1a3.24 3.24 0 01.83.69 4.19 4.19 0 01.55.74l.19.32V20L62 21v5.15q0 .85.38 1.04zm-2.15-3.67a3.4 3.4 0 00-.37-1.52 2.48 2.48 0 00-1-1.09c-.4-.22-.72-.23-1 0a1.45 1.45 0 00-.28 1.09 3.69 3.69 0 00.35 1.57 2.41 2.41 0 001 1.14c.41.23.74.23 1 0a1.56 1.56 0 00.3-1.19z"/><path d="M145.58 81.35a3.3 3.3 0 01-1.52-2.62 1.13 1.13 0 011.83-1 3.29 3.29 0 011.52 2.62 1.25 1.25 0 01-.56 1.14 1 1 0 01-.51.14 1.55 1.55 0 01-.76-.28zm-.31-2.64a.39.39 0 00-.14.35 1.55 1.55 0 00.69 1.2.4.4 0 00.38.06.41.41 0 00.14-.36 1.58 1.58 0 00-.69-1.2.63.63 0 00-.26-.08.21.21 0 00-.12.03z" fill="url(#linear-gradient-21)"/><path d="M29.6 73.84a3.3 3.3 0 01-1.51-2.61 1.25 1.25 0 01.56-1.15 1.23 1.23 0 011.27.09 3.29 3.29 0 011.51 2.62 1.26 1.26 0 01-.56 1.15 1 1 0 01-.51.13 1.47 1.47 0 01-.76-.23zm-.3-2.63a.39.39 0 00-.14.35 1.55 1.55 0 00.69 1.2.4.4 0 00.37 0 .39.39 0 00.15-.35 1.53 1.53 0 00-.7-1.2.46.46 0 00-.26-.08.2.2 0 00-.11.08z" fill="url(#linear-gradient-22)"/><path d="M108.59 62.91a3.3 3.3 0 01-1.52-2.62 1.26 1.26 0 01.56-1.15 1.27 1.27 0 011.27.09 3.27 3.27 0 011.51 2.62 1.24 1.24 0 01-.55 1.15 1 1 0 01-.51.14 1.55 1.55 0 01-.76-.23zm-.31-2.64a.39.39 0 00-.14.35 1.58 1.58 0 00.69 1.2.42.42 0 00.38 0 .39.39 0 00.14-.35 1.58 1.58 0 00-.69-1.2.63.63 0 00-.26-.08.21.21 0 00-.12.08z" fill="url(#linear-gradient-23)"/><path d="M79 28a3.3 3.3 0 01-1.52-2.62 1.25 1.25 0 01.56-1.15 1.23 1.23 0 011.27.09 3.27 3.27 0 011.51 2.62A1.24 1.24 0 0180.3 28a1 1 0 01-.51.13A1.53 1.53 0 0179 28zm-.31-2.64a.39.39 0 00-.14.35 1.58 1.58 0 00.69 1.2.42.42 0 00.38.05.39.39 0 00.14-.35 1.58 1.58 0 00-.69-1.2.63.63 0 00-.26-.08.21.21 0 00-.09-.02z" fill="url(#linear-gradient-24)"/><path d="M152.13 73.77a5.3 5.3 0 01-2.43-4.21 1.82 1.82 0 012.94-1.69 5.29 5.29 0 012.43 4.21 2 2 0 01-.9 1.84 1.64 1.64 0 01-.82.21 2.5 2.5 0 01-1.22-.36zm-.49-4.24a.63.63 0 00-.22.56 2.51 2.51 0 001.11 1.91.63.63 0 00.6.09.64.64 0 00.23-.57 2.47 2.47 0 00-1.12-1.92.81.81 0 00-.41-.13.38.38 0 00-.19.06z" fill="url(#linear-gradient-25)"/><path d="M122.43 29.06a5.32 5.32 0 01-2.43-4.21 1.82 1.82 0 012.94-1.69 5.29 5.29 0 012.43 4.21 2 2 0 01-.9 1.84 1.67 1.67 0 01-.82.21 2.5 2.5 0 01-1.22-.36zm-.49-4.24a.63.63 0 00-.23.56 2.49 2.49 0 001.12 1.93.63.63 0 00.6.09.68.68 0 00.23-.57 2.51 2.51 0 00-1.12-1.93.92.92 0 00-.41-.13.38.38 0 00-.19.05z" fill="url(#linear-gradient-26)"/><path d="M21.57 51.58a5.28 5.28 0 01-2.43-4.2 1.83 1.83 0 012.94-1.7 5.32 5.32 0 012.43 4.21 2 2 0 01-.9 1.84 1.55 1.55 0 01-.82.22 2.41 2.41 0 01-1.22-.37zm-.49-4.23a.62.62 0 00-.22.56A2.51 2.51 0 0022 49.84a.62.62 0 00.6.08.63.63 0 00.23-.56 2.49 2.49 0 00-1.12-1.93.81.81 0 00-.41-.13.38.38 0 00-.22.05z" fill="url(#linear-gradient-27)"/><path d="M13.1 71.69a5.28 5.28 0 01-2.43-4.2 2 2 0 01.89-1.84 2 2 0 012 .14A5.3 5.3 0 0116 70a2 2 0 01-.9 1.84 1.55 1.55 0 01-.82.22 2.41 2.41 0 01-1.18-.37zm-.49-4.23a.62.62 0 00-.22.56A2.53 2.53 0 0013.5 70a.62.62 0 00.6.08.63.63 0 00.23-.56 2.49 2.49 0 00-1.12-1.93.81.81 0 00-.41-.13.3.3 0 00-.19 0z" fill="url(#linear-gradient-28)"/><path d="M100.3 46.5a5.28 5.28 0 01-2.43-4.2 2 2 0 01.89-1.84 2 2 0 012 .14 5.25 5.25 0 012.43 4.21 2 2 0 01-.89 1.84 1.58 1.58 0 01-.82.22 2.39 2.39 0 01-1.18-.37zm-.49-4.23a.6.6 0 00-.23.56 2.51 2.51 0 001.11 1.93.64.64 0 00.61.08.63.63 0 00.22-.56 2.45 2.45 0 00-1.11-1.93.81.81 0 00-.41-.13.29.29 0 00-.19.05z" fill="url(#linear-gradient-29)"/><path d="M160.55 91.26a6.81 6.81 0 01-3.12-5.41 2.34 2.34 0 013.77-2.18 6.77 6.77 0 013.13 5.42 2.58 2.58 0 01-1.15 2.37 2.14 2.14 0 01-1.06.27 3.11 3.11 0 01-1.57-.47zm-.63-5.45a.82.82 0 00-.29.72 3.25 3.25 0 001.43 2.47.86.86 0 00.78.11.84.84 0 00.29-.73 3.2 3.2 0 00-1.43-2.48 1.16 1.16 0 00-.54-.17.48.48 0 00-.24.08z" fill="url(#linear-gradient-30)"/><path d="M80.08.1c-.39-.23-.7 0-.7.4v19.22a1.6 1.6 0 00.7 1.22l28.68 16.55c.38.22.7 0 .7-.41V17.87a1.57 1.57 0 00-.7-1.22z" fill="url(#linear-gradient-31)"/><path d="M108.76 16.65L80.08.1c-.38-.23-.7 0-.7.4v.19l28.45 16.42a1.56 1.56 0 01.7 1.22v19l.23.13c.38.22.7 0 .7-.41V17.87a1.57 1.57 0 00-.7-1.22z" fill="url(#linear-gradient-32)"/><path class="cls-62" d="M87.8 11.49l19.31 11.42v1.23L87.8 12.77v-1.28zm0 3.81l19.31 11.42v1.22L87.8 16.58V15.3zm-.08 3.92l9.94 5.82v1.23l-9.94-5.77v-1.28zM84.81 14a1.52 1.52 0 00.49-1.26 4.62 4.62 0 00-2.08-3.6c-1.14-.66-2.07-.12-2.07 1.2a4.57 4.57 0 001.07 2.72 3.32 3.32 0 00-1.91 3v.83l6.19 3.62v-1.68A7.78 7.78 0 0084.81 14z"/></g></g></svg>
