<svg width="40" height="32" viewBox="0 0 40 32" fill="none" xmlns="http://www.w3.org/2000/svg">
<path d="M20.9449 21.8898C20.9449 21.455 21.2975 21.1024 21.7323 21.1024H36.063C36.4978 21.1024 36.8504 21.455 36.8504 21.8898C36.8504 22.3246 36.4978 22.6772 36.063 22.6772H21.7323C21.2975 22.6772 20.9449 22.3246 20.9449 21.8898ZM31.9685 25.6693C31.9685 25.2345 31.6159 24.8819 31.1811 24.8819H21.7323C21.2975 24.8819 20.9449 25.2345 20.9449 25.6693C20.9449 26.1041 21.2975 26.4567 21.7323 26.4567H31.1811C31.6159 26.4567 31.9685 26.1041 31.9685 25.6693ZM20.9449 18.1102V10.2362C20.9449 9.80142 21.2975 9.44882 21.7323 9.44882H36.063C36.4978 9.44882 36.8504 9.80142 36.8504 10.2362V18.1102C36.8504 18.545 36.4978 18.8976 36.063 18.8976H21.7323C21.2975 18.8976 20.9449 18.545 20.9449 18.1102ZM22.5197 17.3228H35.2756V11.0236H22.5197V17.3228ZM4.72441 3.93701C4.72441 4.37189 4.37189 4.72441 3.93701 4.72441C3.50213 4.72441 3.14961 4.37189 3.14961 3.93701C3.14961 3.50213 3.50213 3.14961 3.93701 3.14961C4.37189 3.14961 4.72441 3.50213 4.72441 3.93701ZM8.26772 3.93701C8.26772 4.37189 7.9152 4.72441 7.48031 4.72441C7.04543 4.72441 6.69291 4.37189 6.69291 3.93701C6.69291 3.50213 7.04543 3.14961 7.48031 3.14961C7.9152 3.14961 8.26772 3.50213 8.26772 3.93701ZM11.811 3.93701C11.811 4.37189 11.4585 4.72441 11.0236 4.72441C10.5887 4.72441 10.2362 4.37189 10.2362 3.93701C10.2362 3.50213 10.5887 3.14961 11.0236 3.14961C11.4585 3.14961 11.811 3.50213 11.811 3.93701ZM0.787402 31.4961C0.35252 31.4961 0 31.1435 0 30.7087V2.3622C0 1.05756 1.05756 0 2.3622 0H37.6378C38.9424 0 40 1.05756 40 2.3622V30.7087C40 31.1435 39.6475 31.4961 39.2126 31.4961H32.4409C31.9891 31.4961 31.6242 31.1124 31.6554 30.654C31.6839 30.2362 32.0504 29.9213 32.4691 29.9213H38.4252V7.87402H19.3701V29.9213H25.3543H25.3551C25.6898 29.9213 25.9959 30.1298 26.0995 30.4481C26.2764 30.9914 25.8727 31.4961 25.3543 31.4961H0.787402ZM1.5748 6.29921H38.4252V2.3622C38.4252 1.92803 38.072 1.5748 37.6378 1.5748H2.3622C1.92803 1.5748 1.5748 1.92803 1.5748 2.3622V6.29921ZM17.7953 7.87402H1.5748V29.9213H17.7953V7.87402ZM3.38583 11.811C3.38583 11.3762 3.73843 11.0236 4.17323 11.0236H9.42677C9.75181 10.1072 10.627 9.44882 11.6535 9.44882C12.6801 9.44882 13.5553 10.1072 13.8803 11.0236H15.4331C15.8679 11.0236 16.2205 11.3762 16.2205 11.811C16.2205 12.2458 15.8679 12.5984 15.4331 12.5984H13.8803C13.5553 13.5149 12.6801 14.1732 11.6535 14.1732C10.627 14.1732 9.75181 13.5149 9.42677 12.5984H4.17323C3.73843 12.5984 3.38583 12.2458 3.38583 11.811ZM10.8661 11.811C10.8661 12.2452 11.2194 12.5984 11.6535 12.5984C12.0877 12.5984 12.4409 12.2452 12.4409 11.811C12.4409 11.3769 12.0877 11.0236 11.6535 11.0236C11.2194 11.0236 10.8661 11.3769 10.8661 11.811ZM16.2205 24.4094C16.2205 24.8443 15.8679 25.1968 15.4331 25.1968H12.0693C11.7443 26.1133 10.8691 26.7717 9.84252 26.7717C8.81598 26.7717 7.94079 26.1133 7.61575 25.1968H4.17323C3.73843 25.1968 3.38583 24.8443 3.38583 24.4094C3.38583 23.9746 3.73843 23.622 4.17323 23.622H7.61575C7.94079 22.7056 8.81598 22.0472 9.84252 22.0472C10.8691 22.0472 11.7443 22.7056 12.0693 23.622H15.4331C15.8679 23.622 16.2205 23.9746 16.2205 24.4094ZM10.6299 24.4094C10.6299 23.9753 10.2767 23.622 9.84252 23.622C9.40835 23.622 9.05512 23.9753 9.05512 24.4094C9.05512 24.8436 9.40835 25.1968 9.84252 25.1968C10.2767 25.1968 10.6299 24.8436 10.6299 24.4094ZM3.38583 18.1102C3.38583 16.8077 4.44551 15.748 5.74803 15.748C6.77449 15.748 7.64976 16.4064 7.9748 17.3228H15.4331C15.8679 17.3228 16.2205 17.6754 16.2205 18.1102C16.2205 18.545 15.8679 18.8976 15.4331 18.8976H7.9748C7.64976 19.8141 6.77457 20.4724 5.74803 20.4724C4.44551 20.4724 3.38583 19.4128 3.38583 18.1102ZM4.96063 18.1102C4.96063 18.5444 5.31386 18.8976 5.74803 18.8976C6.1822 18.8976 6.53543 18.5444 6.53543 18.1102C6.53543 17.6761 6.1822 17.3228 5.74803 17.3228C5.31386 17.3228 4.96063 17.6761 4.96063 18.1102ZM28.8976 29.9213C28.4638 29.9213 28.1102 30.2748 28.1102 30.7087C28.1102 31.1425 28.4638 31.4961 28.8976 31.4961C29.3315 31.4961 29.685 31.1425 29.685 30.7087C29.685 30.2748 29.3315 29.9213 28.8976 29.9213Z" fill="white"/>
</svg>
