<svg xmlns="http://www.w3.org/2000/svg" viewBox="0 0 416.84 276.33"><defs><style>.cls-1{fill:#fcf7e6;}.cls-2{fill:#1e2147;}.cls-3{fill:#b8b4a8;}.cls-15,.cls-4{fill:#9bb3ba;}.cls-4{opacity:0.3;}.cls-5{fill:#4b5185;}.cls-6{fill:#990e28;}.cls-7{fill:#e2153b;}.cls-8{fill:#eeae6a;}.cls-9{fill:#ffc68a;}.cls-10{fill:#3dba97;}.cls-11{fill:#309176;}.cls-12{fill:#111329;}.cls-13{fill:#50514f;}.cls-14{fill:#2a2d4a;}.cls-15{opacity:0.5;}.cls-16{fill:#e6e1d1;}.cls-17{opacity:0.1;}.cls-18{fill:#f15c6b;}</style></defs><g id="Layer_2" data-name="Layer 2"><g id="Layer_1-2" data-name="Layer 1"><rect class="cls-1" x="144.27" y="100" width="127.09" height="76.33" rx="5.74"/><rect class="cls-2" x="149.35" y="104.7" width="116.92" height="66.94" rx="2.22"/><rect class="cls-3" x="151.37" y="107.05" width="112.87" height="62.24" rx="0.56"/><path class="cls-1" d="M154.92,155.78,155,112a1.56,1.56,0,0,1,1.55-1.55h89.95a1.54,1.54,0,0,1,1.55,1.55l.11,43.8a1.54,1.54,0,0,1-1.54,1.55H156.47A1.54,1.54,0,0,1,154.92,155.78Z"/><polygon class="cls-2" points="244.27 153.42 158.84 153.42 158.94 114.35 244.17 114.35 244.27 153.42"/><path class="cls-4" d="M233.89,123.54h10.17V123H233.89v-8.55h-.5V123H223.12v-8.55h-.49V123H212.36v-8.55h-.5V123H201.59v-8.55h-.49V123H190.83v-8.55h-.5V123H180.06v-8.55h-.49V123H169.3v-8.55h-.49V123h-9.74v.5h9.74v10.52h-9.74v.49h9.74v10.53h-9.74v.49h9.74v7.71h.49v-7.71h10.27v7.71h.49v-7.71h10.27v7.71h.5v-7.71H201.1v7.71h.49v-7.71h10.27v7.71h.5v-7.71h10.27v7.71h.49v-7.71h10.27v7.71h.5v-7.71h10.17v-.49H233.89V134.55h10.17v-.49H233.89Zm-54.32,21.54H169.3V134.55h10.27Zm0-11H169.3V123.54h10.27Zm10.76,11H180.06V134.55h10.27Zm0-11H180.06V123.54h10.27Zm10.77,11H190.83V134.55H201.1Zm0-11H190.83V123.54H201.1Zm10.76,11H201.59V134.55h10.27Zm0-11H201.59V123.54h10.27Zm10.77,11H212.36V134.55h10.27Zm0-11H212.36V123.54h10.27Zm10.76,11H223.12V134.55h10.27Zm0-11H223.12V123.54h10.27Z"/><path class="cls-5" d="M158.68,112.84a1.21,1.21,0,1,1-1.21-1.22A1.21,1.21,0,0,1,158.68,112.84Z"/><path class="cls-5" d="M158.39,154.93a1.22,1.22,0,1,1-1.21-1.21A1.21,1.21,0,0,1,158.39,154.93Z"/><path class="cls-5" d="M246.7,112.84a1.22,1.22,0,1,1-1.21-1.22A1.21,1.21,0,0,1,246.7,112.84Z"/><circle class="cls-5" cx="245.9" cy="155.05" r="1.21"/><path class="cls-1" d="M241.56,121.42a.39.39,0,0,0-.39.39v28.86H189.23a.38.38,0,0,0-.39.39.39.39,0,0,0,.39.39h52.32a.4.4,0,0,0,.28-.12.36.36,0,0,0,.12-.28V121.81A.39.39,0,0,0,241.56,121.42Z"/><path class="cls-1" d="M219.9,124.73h12.22a.39.39,0,1,0,0-.78H219.9a.39.39,0,1,0,0,.78Z"/><path class="cls-1" d="M233.85,127.13H230.2a.39.39,0,0,0,0,.78h3.65a.39.39,0,0,0,0-.78Z"/><circle class="cls-1" cx="233.85" cy="124.34" r="0.49"/><path class="cls-1" d="M219.47,145.84a.39.39,0,1,0,0-.78H208.08a.39.39,0,0,0,0,.78Z"/><path class="cls-1" d="M206.35,148.24a.39.39,0,1,0,0,.78H210a.39.39,0,0,0,0-.78Z"/><path class="cls-1" d="M206.35,145.94a.49.49,0,1,0-.49-.49A.49.49,0,0,0,206.35,145.94Z"/><path class="cls-1" d="M189.23,138.84h14.52a.4.4,0,0,0,.15,0,.36.36,0,0,0,.12-.08l2.39-2.39a2.3,2.3,0,0,0,.78.15,2.21,2.21,0,0,0,2.22-2.22,2,2,0,0,0-.06-.49l5.38-2.52a2.2,2.2,0,0,0,1.82,1,2.27,2.27,0,0,0,.69-.12l4.29,9a2.2,2.2,0,0,0,.63,3.76l-1.83,1.83H206a.4.4,0,0,0,0,.79h14.53a.42.42,0,0,0,.15,0,.2.2,0,0,0,.12-.08l2.37-2.37a2.21,2.21,0,0,0,2-2.2s0-.06,0-.1l8.26-2.66,3.79,8.84a.4.4,0,0,0,.36.24.45.45,0,0,0,.16,0,.39.39,0,0,0,.2-.52L234,139.37a.39.39,0,0,0-.48-.22L225,141.9a2.21,2.21,0,0,0-2-1.35,2.26,2.26,0,0,0-.74.14l-4.28-9a2.18,2.18,0,0,0,0-3.43l1.94-1.94h14.36a.4.4,0,0,0,0-.79H219.72l-.15,0a.38.38,0,0,0-.13.09l-2.22,2.22a2.15,2.15,0,0,0-.67-.12,2.22,2.22,0,0,0-2.22,2.22,2,2,0,0,0,.08.55l-5.36,2.51a2.24,2.24,0,0,0-1.86-1,2.58,2.58,0,0,0-.4,0L204,123.17a.41.41,0,0,0-.21-.24.37.37,0,0,0-.31,0l-6.67,2.76a.39.39,0,0,0-.21.51.39.39,0,0,0,.51.22l6.27-2.61,2.71,8.57a2.2,2.2,0,0,0-.34,3.54l-2.13,2.14H189.23a.38.38,0,0,0-.39.39A.39.39,0,0,0,189.23,138.84ZM223,144.21a1.44,1.44,0,0,1-1.43-1.44,1.47,1.47,0,0,1,.36-1l.65,1.35a.39.39,0,0,0,.47.2l1.37-.44A1.44,1.44,0,0,1,223,144.21Zm0-2.87a1.43,1.43,0,0,1,1.29.81l-1.15.37-.54-1.12A1.34,1.34,0,0,1,223,141.34Zm-6.4-9.91a1.42,1.42,0,0,1-1.09-.51l1-.47.45.94A2.09,2.09,0,0,1,216.55,131.43ZM215.11,130a1.45,1.45,0,0,1,1.44-1.44,1.51,1.51,0,0,1,.37.06l.05.08a.43.43,0,0,0,.28.11h.08A1.43,1.43,0,0,1,218,130a1.39,1.39,0,0,1-.4,1l-.59-1.22a.39.39,0,0,0-.52-.19l-1.34.63A1.49,1.49,0,0,1,215.11,130Zm-7.92,2.84a1.44,1.44,0,0,1,1.14.56l-1,.46-.31-1Zm-.89.32.43,1.36a.38.38,0,0,0,.22.24.36.36,0,0,0,.32,0l1.35-.63c0,.05,0,.09,0,.14a1.44,1.44,0,1,1-2.87,0A1.41,1.41,0,0,1,206.3,133.16Z"/><path class="cls-1" d="M191.35,137.22h11.38a.38.38,0,0,0,.39-.39.39.39,0,0,0-.39-.39H191.35a.39.39,0,0,0-.39.39A.38.38,0,0,0,191.35,137.22Z"/><path class="cls-1" d="M192.07,139.62a.4.4,0,0,0-.4.39.39.39,0,0,0,.4.39h3.64a.38.38,0,0,0,.39-.39.39.39,0,0,0-.39-.39Z"/><circle class="cls-1" cx="189.62" cy="136.83" r="0.49"/><path class="cls-1" d="M177.4,150.66H160.7a.39.39,0,0,0-.39.39.4.4,0,0,0,.39.39h16.7a.39.39,0,0,0,.39-.39A.38.38,0,0,0,177.4,150.66Z"/><path class="cls-1" d="M160.7,149.25h5a.4.4,0,0,0,.4-.39.39.39,0,0,0-.4-.39h-5a.39.39,0,0,0-.39.39A.4.4,0,0,0,160.7,149.25Z"/><path class="cls-1" d="M160.7,147.06h8.35a.39.39,0,0,0,.39-.39.38.38,0,0,0-.39-.39H160.7a.39.39,0,0,0-.39.39A.4.4,0,0,0,160.7,147.06Z"/><path class="cls-1" d="M177.4,144.09H160.7a.39.39,0,0,0-.39.39.4.4,0,0,0,.39.39h16.7a.39.39,0,0,0,.39-.39A.38.38,0,0,0,177.4,144.09Z"/><path class="cls-1" d="M160.7,142.68h11a.39.39,0,0,0,.39-.39.38.38,0,0,0-.39-.39h-11a.39.39,0,0,0-.39.39A.4.4,0,0,0,160.7,142.68Z"/><path class="cls-1" d="M160.7,140.49h15.53a.4.4,0,0,0,.39-.39.39.39,0,0,0-.39-.39H160.7a.39.39,0,0,0-.39.39A.4.4,0,0,0,160.7,140.49Z"/><path class="cls-1" d="M160.7,138.3h8.94a.39.39,0,0,0,.39-.39.38.38,0,0,0-.39-.39H160.7a.39.39,0,0,0-.39.39A.4.4,0,0,0,160.7,138.3Z"/><path class="cls-1" d="M160.7,136.11h12.59a.39.39,0,0,0,.39-.39.38.38,0,0,0-.39-.39H160.7a.39.39,0,0,0-.39.39A.4.4,0,0,0,160.7,136.11Z"/><path class="cls-1" d="M177.4,133.14H160.7a.39.39,0,0,0-.39.39.4.4,0,0,0,.39.39h16.7a.39.39,0,0,0,.39-.39A.38.38,0,0,0,177.4,133.14Z"/><path class="cls-1" d="M160.7,131.73h12.59a.4.4,0,0,0,0-.79H160.7a.4.4,0,0,0,0,.79Z"/><path class="cls-1" d="M160.7,129.54h8.94a.4.4,0,0,0,0-.79H160.7a.4.4,0,0,0,0,.79Z"/><path class="cls-1" d="M160.7,127.35h15.53a.4.4,0,0,0,0-.79H160.7a.4.4,0,0,0,0,.79Z"/><path class="cls-1" d="M160.7,125.16h11a.4.4,0,0,0,0-.79h-11a.4.4,0,0,0,0,.79Z"/><path class="cls-1" d="M177.4,122.18H160.7a.4.4,0,0,0,0,.79h16.7a.4.4,0,0,0,0-.79Z"/><path class="cls-1" d="M160.7,120.78h8.35a.4.4,0,0,0,0-.79H160.7a.4.4,0,0,0,0,.79Z"/><path class="cls-1" d="M160.7,118.59h5a.4.4,0,1,0,0-.79h-5a.4.4,0,0,0,0,.79Z"/><path class="cls-1" d="M177.4,115.61H160.7a.4.4,0,0,0,0,.79h16.7a.4.4,0,0,0,0-.79Z"/><path class="cls-1" d="M196.52,118.59H181.74a1.44,1.44,0,0,1-1.43-1.44v-.1a1.44,1.44,0,0,1,1.43-1.44h14.78a1.44,1.44,0,0,1,1.43,1.44v.1A1.44,1.44,0,0,1,196.52,118.59Zm-14.78-2.19a.65.65,0,0,0-.65.65v.1a.65.65,0,0,0,.65.65h14.78a.65.65,0,0,0,.65-.65v-.1a.65.65,0,0,0-.65-.65Z"/><path class="cls-1" d="M201.33,118.59a1.49,1.49,0,1,1,1.48-1.49A1.49,1.49,0,0,1,201.33,118.59Zm0-2.19a.7.7,0,1,0,0,1.4.7.7,0,0,0,0-1.4Z"/><path class="cls-1" d="M241.29,118.59a1.47,1.47,0,0,1-1.07-.46,1.44,1.44,0,0,1-.42-1.06,1.49,1.49,0,1,1,1.49,1.52Zm0-2.19a.71.71,0,0,0-.72.69.72.72,0,0,0,.2.5.69.69,0,0,0,.49.21l0,.39v-.39a.7.7,0,0,0,0-1.4Z"/><path class="cls-1" d="M236.71,118.59a1.49,1.49,0,0,1-1.07-.46,1.44,1.44,0,0,1-.42-1.06,1.49,1.49,0,1,1,1.49,1.52Zm0-2.19a.7.7,0,1,0,0,1.4v0a.71.71,0,0,0,.7-.69.69.69,0,0,0-.69-.71Z"/><path class="cls-1" d="M233.85,116.36H204.2a.36.36,0,0,1,0-.71h29.65a.36.36,0,1,1,0,.71Z"/><path class="cls-1" d="M233.85,118.55H204.2a.36.36,0,0,1,0-.71h29.65a.36.36,0,1,1,0,.71Z"/><rect class="cls-1" x="251.45" y="110.81" width="9.51" height="20.25" rx="0.65"/><rect class="cls-6" x="253.11" y="112.47" width="6.19" height="16.93"/><rect class="cls-7" x="253.11" y="114.87" width="6.19" height="6.59"/><rect class="cls-1" x="251.45" y="136.94" width="9.51" height="20.25" rx="0.65"/><rect class="cls-8" x="253.11" y="138.6" width="6.19" height="16.93"/><rect class="cls-9" x="253.11" y="141" width="6.19" height="6.59"/><path class="cls-2" d="M218.48,161.69H188a.73.73,0,0,1-.73-.72.73.73,0,0,1,.73-.73h30.45a.73.73,0,0,1,.73.73A.73.73,0,0,1,218.48,161.69Z"/><path class="cls-2" d="M218.48,164.22H188a.73.73,0,0,1-.73-.72.73.73,0,0,1,.73-.73h30.45a.73.73,0,0,1,.73.73A.73.73,0,0,1,218.48,164.22Z"/><path class="cls-2" d="M218.48,166.75H188a.73.73,0,0,1-.73-.73.73.73,0,0,1,.73-.72h30.45a.73.73,0,0,1,.73.72A.73.73,0,0,1,218.48,166.75Z"/><circle class="cls-2" cx="159" cy="163.5" r="3.52"/><path class="cls-8" d="M159,165.54a2,2,0,1,1,2-2A2,2,0,0,1,159,165.54Z"/><path class="cls-2" d="M169.59,167a3.52,3.52,0,1,1,3.52-3.51A3.52,3.52,0,0,1,169.59,167Z"/><path class="cls-7" d="M169.59,165.54a2,2,0,1,1,2-2A2,2,0,0,1,169.59,165.54Z"/><circle class="cls-2" cx="180.18" cy="163.5" r="3.52"/><path class="cls-10" d="M180.18,165.54a2,2,0,1,1,2-2A2,2,0,0,1,180.18,165.54Z"/><rect class="cls-2" x="222.09" y="160.97" width="26.1" height="6.04" rx="1.06"/><rect class="cls-5" x="223.66" y="162.53" width="22.97" height="2.91"/><circle class="cls-11" cx="256.21" cy="163.99" r="3.02"/><path class="cls-10" d="M257.83,164a1.62,1.62,0,1,0-1.62,1.62A1.63,1.63,0,0,0,257.83,164Z"/><rect class="cls-1" y="100" width="127.09" height="76.33" rx="5.74"/><rect class="cls-2" x="5.09" y="104.7" width="116.92" height="66.94" rx="2.22"/><rect class="cls-3" x="7.11" y="107.05" width="112.87" height="62.24" rx="0.56"/><path class="cls-1" d="M11.84,110.81H61.07a.69.69,0,0,1,.69.69v53.39a.69.69,0,0,1-.69.69H11.84a.69.69,0,0,1-.69-.69V111.49A.68.68,0,0,1,11.84,110.81Z"/><path class="cls-2" d="M15.4,113.41a1.21,1.21,0,1,1-1.21-1.21A1.21,1.21,0,0,1,15.4,113.41Z"/><path class="cls-2" d="M15.4,162.8a1.21,1.21,0,1,1-1.21-1.21A1.22,1.22,0,0,1,15.4,162.8Z"/><path class="cls-2" d="M59.93,113.41a1.22,1.22,0,1,1-1.21-1.21A1.21,1.21,0,0,1,59.93,113.41Z"/><path class="cls-2" d="M59.93,162.8a1.22,1.22,0,1,1-1.21-1.21A1.22,1.22,0,0,1,59.93,162.8Z"/><circle class="cls-3" cx="36.45" cy="138.19" r="20.59"/><circle class="cls-12" cx="36.45" cy="138.19" r="18.25"/><path class="cls-10" d="M52.55,139H41.82a.79.79,0,0,1,0-1.57H52.55a.79.79,0,0,1,0,1.57Z"/><path class="cls-10" d="M30.86,139H20.16a.79.79,0,0,1,0-1.57h10.7a.79.79,0,0,1,0,1.57Z"/><path class="cls-10" d="M36.36,155.17a.79.79,0,0,1-.79-.79V143.67a.79.79,0,1,1,1.57,0v10.71A.79.79,0,0,1,36.36,155.17Z"/><path class="cls-10" d="M36.36,133.49a.78.78,0,0,1-.79-.78V122a.79.79,0,0,1,1.57,0v10.72A.78.78,0,0,1,36.36,133.49Z"/><path class="cls-10" d="M36.36,144.4a6.21,6.21,0,1,1,6.21-6.21A6.22,6.22,0,0,1,36.36,144.4Zm0-10.61a4.4,4.4,0,1,0,4.4,4.4A4.41,4.41,0,0,0,36.36,133.79Z"/><path class="cls-10" d="M36.36,149.1a10.92,10.92,0,1,1,10.91-10.91A10.93,10.93,0,0,1,36.36,149.1Zm0-20.26a9.35,9.35,0,1,0,9.35,9.35A9.36,9.36,0,0,0,36.36,128.84Z"/><circle class="cls-10" cx="36.36" cy="138.17" r="0.81"/><circle class="cls-1" cx="46.49" cy="128.36" r="1.4"/><path class="cls-1" d="M24,142.27a1.4,1.4,0,1,0-1.4,1.4A1.4,1.4,0,0,0,24,142.27Z"/><path class="cls-1" d="M33.84,123.39a1.4,1.4,0,1,0-1.39,1.39A1.4,1.4,0,0,0,33.84,123.39Z"/><circle class="cls-6" cx="18.21" cy="118.66" r="2.97"/><circle class="cls-7" cx="18.21" cy="118.66" r="1.69"/><rect class="cls-1" x="68.42" y="110.81" width="11.08" height="20.25" rx="0.65"/><rect class="cls-6" x="70.08" y="112.47" width="7.75" height="16.93"/><rect class="cls-7" x="70.08" y="120.4" width="7.75" height="6.59"/><rect class="cls-1" x="84.47" y="110.81" width="11.08" height="20.25" rx="0.65"/><rect class="cls-2" x="86.13" y="112.47" width="7.75" height="16.93"/><rect class="cls-5" x="86.13" y="114.87" width="7.75" height="6.59"/><path class="cls-2" d="M109.31,113.18v48.7a1.86,1.86,0,0,1-3.72,0v-48.7a1.86,1.86,0,0,1,3.72,0Z"/><rect class="cls-7" x="100.57" y="145.18" width="14.16" height="12.28" rx="2.41"/><path class="cls-6" d="M112.49,154a.88.88,0,0,1-.87.89h-8.19a.88.88,0,0,1,0-1.76h8.19A.87.87,0,0,1,112.49,154Z"/><path class="cls-6" d="M112.49,148.58a.88.88,0,0,1-.87.89h-8.19a.88.88,0,0,1,0-1.76h8.19A.87.87,0,0,1,112.49,148.58Z"/><rect class="cls-1" x="68.42" y="135.33" width="27.13" height="30.21" rx="1.85"/><path class="cls-12" d="M89.18,147.56H74.5A.52.52,0,0,1,74,147v-5.27a.52.52,0,0,1,.51-.53H89.18a.52.52,0,0,1,.52.53V147A.52.52,0,0,1,89.18,147.56Z"/><path class="cls-10" d="M88.14,145.18H75.57a.79.79,0,1,1,0-1.57H88.14a.79.79,0,0,1,0,1.57Z"/><path class="cls-10" d="M78.41,146.65a.73.73,0,0,1-.72-.73v-3.06a.72.72,0,0,1,.72-.72.73.73,0,0,1,.73.72v3.06A.73.73,0,0,1,78.41,146.65Z"/><rect class="cls-2" x="74.05" y="150.48" width="4.29" height="3.97" rx="0.71"/><rect class="cls-5" x="74.73" y="151.11" width="2.93" height="2.71" rx="0.27"/><rect class="cls-2" x="79.84" y="150.48" width="4.29" height="3.97" rx="0.71"/><rect class="cls-5" x="80.52" y="151.11" width="2.93" height="2.71" rx="0.27"/><rect class="cls-2" x="85.62" y="150.48" width="4.29" height="3.97" rx="0.71"/><rect class="cls-5" x="86.3" y="151.11" width="2.93" height="2.71" rx="0.27"/><rect class="cls-2" x="74.05" y="155.41" width="4.29" height="3.97" rx="0.71"/><rect class="cls-5" x="74.73" y="156.04" width="2.93" height="2.71" rx="0.27"/><rect class="cls-2" x="79.84" y="155.41" width="4.29" height="3.97" rx="0.71"/><rect class="cls-5" x="80.52" y="156.04" width="2.93" height="2.71" rx="0.27"/><rect class="cls-2" x="85.62" y="155.41" width="4.29" height="3.97" rx="0.71"/><rect class="cls-5" x="86.3" y="156.04" width="2.93" height="2.71" rx="0.27"/><path class="cls-2" d="M72.26,162.8a1.22,1.22,0,1,1-1.21-1.21A1.22,1.22,0,0,1,72.26,162.8Z"/><path class="cls-2" d="M94.15,162.8a1.22,1.22,0,1,1-1.21-1.21A1.22,1.22,0,0,1,94.15,162.8Z"/><path class="cls-2" d="M94.15,138.14a1.22,1.22,0,1,1-1.21-1.21A1.22,1.22,0,0,1,94.15,138.14Z"/><path class="cls-2" d="M72.5,138.14a1.21,1.21,0,1,1-1.21-1.21A1.22,1.22,0,0,1,72.5,138.14Z"/><rect class="cls-1" x="289.76" y="100" width="127.09" height="76.33" rx="5.74"/><rect class="cls-2" x="294.84" y="105.09" width="116.92" height="66.94" rx="2.22"/><rect class="cls-3" x="296.86" y="107.44" width="112.87" height="62.24" rx="0.56"/><rect class="cls-2" x="301.15" y="111.29" width="18.89" height="28.15" rx="2.24"/><rect class="cls-1" x="306.65" y="125.05" width="7.89" height="10.73" rx="0.87"/><path class="cls-1" d="M314.54,119.21a3.95,3.95,0,1,0-4,4A3.94,3.94,0,0,0,314.54,119.21Z"/><circle class="cls-7" cx="310.59" cy="119.21" r="2.66"/><path class="cls-1" d="M304.84,113.84a1.08,1.08,0,1,0-1.08,1.08A1.08,1.08,0,0,0,304.84,113.84Z"/><path class="cls-1" d="M304.84,136.89a1.08,1.08,0,1,0-1.08,1.08A1.08,1.08,0,0,0,304.84,136.89Z"/><path class="cls-1" d="M318.5,113.84a1.08,1.08,0,1,0-1.07,1.08A1.07,1.07,0,0,0,318.5,113.84Z"/><path class="cls-1" d="M318.5,136.89a1.08,1.08,0,1,0-1.07,1.08A1.07,1.07,0,0,0,318.5,136.89Z"/><path class="cls-2" d="M312.68,127.73h-4.17a.73.73,0,0,1-.73-.72.73.73,0,0,1,.73-.73h4.17a.73.73,0,0,1,.72.73A.72.72,0,0,1,312.68,127.73Z"/><path class="cls-2" d="M312.68,131.14h-4.17a.73.73,0,0,1-.73-.73.73.73,0,0,1,.73-.72h4.17a.72.72,0,0,1,.72.72A.73.73,0,0,1,312.68,131.14Z"/><path class="cls-2" d="M312.68,134.54h-4.17a.73.73,0,1,1,0-1.45h4.17a.73.73,0,0,1,0,1.45Z"/><rect class="cls-2" x="324.73" y="111.29" width="18.89" height="28.15" rx="2.24"/><rect class="cls-1" x="330.23" y="125.05" width="7.89" height="10.73" rx="0.87"/><path class="cls-1" d="M338.13,119.21a3.95,3.95,0,1,0-3.95,4A3.94,3.94,0,0,0,338.13,119.21Z"/><circle class="cls-8" cx="334.18" cy="119.21" r="2.66"/><path class="cls-1" d="M328.42,113.84a1.08,1.08,0,1,0-1.08,1.08A1.07,1.07,0,0,0,328.42,113.84Z"/><path class="cls-1" d="M328.42,136.89a1.08,1.08,0,1,0-1.08,1.08A1.08,1.08,0,0,0,328.42,136.89Z"/><path class="cls-1" d="M342.09,113.84a1.08,1.08,0,1,0-1.08,1.08A1.07,1.07,0,0,0,342.09,113.84Z"/><path class="cls-1" d="M342.09,136.89A1.08,1.08,0,1,0,341,138,1.08,1.08,0,0,0,342.09,136.89Z"/><path class="cls-2" d="M336.26,127.73h-4.17a.72.72,0,0,1-.72-.72.73.73,0,0,1,.72-.73h4.17a.73.73,0,0,1,.73.73A.73.73,0,0,1,336.26,127.73Z"/><path class="cls-2" d="M336.26,131.14h-4.17a.73.73,0,0,1-.72-.73.72.72,0,0,1,.72-.72h4.17a.73.73,0,0,1,.73.72A.73.73,0,0,1,336.26,131.14Z"/><path class="cls-2" d="M336.26,134.54h-4.17a.73.73,0,0,1,0-1.45h4.17a.73.73,0,1,1,0,1.45Z"/><rect class="cls-2" x="348.32" y="111.29" width="18.89" height="28.15" rx="2.24"/><rect class="cls-1" x="353.82" y="125.05" width="7.89" height="10.73" rx="0.87"/><path class="cls-1" d="M361.71,119.21a3.95,3.95,0,1,0-3.95,4A3.94,3.94,0,0,0,361.71,119.21Z"/><circle class="cls-10" cx="357.76" cy="119.21" r="2.66"/><path class="cls-1" d="M352,113.84a1.08,1.08,0,1,0-1.08,1.08A1.08,1.08,0,0,0,352,113.84Z"/><path class="cls-1" d="M352,136.89a1.08,1.08,0,1,0-1.08,1.08A1.08,1.08,0,0,0,352,136.89Z"/><path class="cls-1" d="M365.67,113.84a1.08,1.08,0,1,0-1.07,1.08A1.07,1.07,0,0,0,365.67,113.84Z"/><path class="cls-1" d="M365.67,136.89A1.08,1.08,0,1,0,364.6,138,1.07,1.07,0,0,0,365.67,136.89Z"/><path class="cls-2" d="M359.85,127.73h-4.17A.73.73,0,0,1,355,127a.73.73,0,0,1,.73-.73h4.17a.73.73,0,0,1,.72.73A.72.72,0,0,1,359.85,127.73Z"/><path class="cls-2" d="M359.85,131.14h-4.17a.73.73,0,0,1-.73-.73.73.73,0,0,1,.73-.72h4.17a.72.72,0,0,1,.72.72A.73.73,0,0,1,359.85,131.14Z"/><path class="cls-2" d="M359.85,134.54h-4.17a.73.73,0,1,1,0-1.45h4.17a.73.73,0,0,1,0,1.45Z"/><rect class="cls-1" x="310.53" y="143.46" width="9.51" height="20.25" rx="0.65"/><rect class="cls-6" x="312.19" y="145.12" width="6.19" height="16.93"/><rect class="cls-7" x="312.19" y="147.53" width="6.19" height="6.59"/><rect class="cls-1" x="334.11" y="143.46" width="9.51" height="20.25" rx="0.65"/><rect class="cls-8" x="335.77" y="145.13" width="6.19" height="16.93"/><rect class="cls-9" x="335.77" y="153.06" width="6.19" height="6.59"/><rect class="cls-1" x="357.69" y="143.46" width="9.51" height="20.25" rx="0.65"/><rect class="cls-11" x="359.36" y="145.12" width="6.19" height="16.93"/><rect class="cls-10" x="359.36" y="147.53" width="6.19" height="6.59"/><rect class="cls-2" x="301.15" y="143.71" width="7.78" height="20" rx="1.51"/><rect class="cls-5" x="302.72" y="145.28" width="4.65" height="16.87"/><path class="cls-2" d="M305,161.29a.76.76,0,0,1-.76-.76V146.92a.76.76,0,0,1,1.52,0v13.61A.76.76,0,0,1,305,161.29Z"/><rect class="cls-2" x="324.73" y="143.71" width="7.78" height="20" rx="1.51"/><rect class="cls-5" x="326.3" y="145.28" width="4.65" height="16.87"/><path class="cls-2" d="M328.62,161.29a.76.76,0,0,1-.75-.76V146.92a.76.76,0,0,1,1.51,0v13.61A.76.76,0,0,1,328.62,161.29Z"/><rect class="cls-2" x="348.32" y="143.71" width="7.78" height="20" rx="1.51"/><rect class="cls-5" x="349.89" y="145.28" width="4.65" height="16.87"/><path class="cls-2" d="M352.21,161.29a.76.76,0,0,1-.76-.76V146.92a.76.76,0,0,1,1.52,0v13.61A.76.76,0,0,1,352.21,161.29Z"/><rect class="cls-1" x="372.06" y="111.29" width="33.08" height="54.08" rx="2.84"/><rect class="cls-5" x="376.04" y="136.79" width="25.12" height="3" rx="0.88"/><path class="cls-5" d="M380,133.25a1.18,1.18,0,0,1,1.2,1.18v26.1h-1a1.37,1.37,0,0,1-1.37-1.37V134.43A1.17,1.17,0,0,1,380,133.25Z"/><path class="cls-5" d="M397.35,133.25a1.19,1.19,0,0,1,1.2,1.18v24.73a1.37,1.37,0,0,1-1.37,1.37h-1v-26.1A1.18,1.18,0,0,1,397.35,133.25Z"/><path class="cls-7" d="M396.17,155.77a40,40,0,0,0-14.95,0v4.76a40,40,0,0,0,14.95,0Z"/><path class="cls-6" d="M381.22,157.5v-1.73a40,40,0,0,1,14.95,0v1.73A66.73,66.73,0,0,0,381.22,157.5Z"/><path class="cls-2" d="M378.85,159.56a1.48,1.48,0,0,1-1.05-1.41,1.46,1.46,0,0,1,1.05-1.4Z"/><path class="cls-2" d="M398.55,159.56a1.48,1.48,0,0,0,1.05-1.41,1.46,1.46,0,0,0-1.05-1.4Z"/><path class="cls-2" d="M378.09,141.29h.76v-5.78h-.76a.76.76,0,0,0-.76.76v4.26A.76.76,0,0,0,378.09,141.29Z"/><path class="cls-2" d="M382,141.29h-.76v-5.78H382a.76.76,0,0,1,.76.76v4.26A.76.76,0,0,1,382,141.29Z"/><path class="cls-2" d="M395.42,141.29h.75v-5.78h-.75a.76.76,0,0,0-.76.76v4.26A.76.76,0,0,0,395.42,141.29Z"/><path class="cls-2" d="M399.31,141.29h-.76v-5.78h.76a.76.76,0,0,1,.76.76v4.26A.76.76,0,0,1,399.31,141.29Z"/><path class="cls-2" d="M376.52,162.24a1.21,1.21,0,1,1-1.21-1.21A1.21,1.21,0,0,1,376.52,162.24Z"/><path class="cls-2" d="M403.08,162.24a1.22,1.22,0,1,1-1.21-1.21A1.21,1.21,0,0,1,403.08,162.24Z"/><path class="cls-2" d="M376.52,114.78a1.21,1.21,0,1,1-1.21-1.22A1.21,1.21,0,0,1,376.52,114.78Z"/><path class="cls-2" d="M403.08,114.78a1.22,1.22,0,1,1-1.21-1.22A1.21,1.21,0,0,1,403.08,114.78Z"/><polygon class="cls-7" points="390.74 117.96 385.92 125.3 389.3 125.3 390.74 117.96"/><polygon class="cls-7" points="386.65 131.76 388.1 124.42 391.47 124.42 386.65 131.76"/><rect class="cls-1" x="144.27" y="200" width="127.09" height="76.33" rx="5.74"/><rect class="cls-2" x="149.35" y="204.7" width="116.92" height="66.94" rx="2.22"/><rect class="cls-3" x="151.37" y="207.05" width="112.87" height="62.24" rx="0.56"/><rect class="cls-2" x="155.84" y="210.16" width="7.24" height="11.88" rx="3.58"/><path class="cls-1" d="M159.46,219.69a1.23,1.23,0,0,1-1.23-1.22v-4.8a1.23,1.23,0,0,1,2.45,0v4.8A1.22,1.22,0,0,1,159.46,219.69Z"/><rect class="cls-5" x="155.84" y="224.83" width="7.24" height="11.88" rx="3.58"/><path class="cls-1" d="M159.46,234.36a1.23,1.23,0,0,1-1.23-1.22v-4.8a1.23,1.23,0,0,1,2.45,0v4.8A1.22,1.22,0,0,1,159.46,234.36Z"/><rect class="cls-7" x="155.84" y="239.5" width="7.24" height="11.88" rx="3.58"/><path class="cls-1" d="M159.46,249a1.22,1.22,0,0,1-1.23-1.22V243a1.23,1.23,0,1,1,2.45,0v4.79A1.22,1.22,0,0,1,159.46,249Z"/><rect class="cls-6" x="155.84" y="254.17" width="7.24" height="11.88" rx="3.58"/><path class="cls-1" d="M159.46,263.7a1.22,1.22,0,0,1-1.23-1.22v-4.79a1.23,1.23,0,1,1,2.45,0v4.79A1.22,1.22,0,0,1,159.46,263.7Z"/><rect class="cls-2" x="252.33" y="210.16" width="7.24" height="11.88" rx="3.58"/><path class="cls-1" d="M256,219.69a1.22,1.22,0,0,1-1.22-1.22v-4.8a1.22,1.22,0,0,1,2.44,0v4.8A1.22,1.22,0,0,1,256,219.69Z"/><rect class="cls-5" x="252.33" y="224.83" width="7.24" height="11.88" rx="3.58"/><path class="cls-1" d="M256,234.36a1.22,1.22,0,0,1-1.22-1.22v-4.8a1.22,1.22,0,0,1,2.44,0v4.8A1.22,1.22,0,0,1,256,234.36Z"/><rect class="cls-7" x="252.33" y="239.5" width="7.24" height="11.88" rx="3.58"/><path class="cls-1" d="M256,249a1.21,1.21,0,0,1-1.22-1.22V243a1.22,1.22,0,1,1,2.44,0v4.79A1.22,1.22,0,0,1,256,249Z"/><rect class="cls-6" x="252.33" y="254.17" width="7.24" height="11.88" rx="3.58"/><path class="cls-1" d="M256,263.7a1.21,1.21,0,0,1-1.22-1.22v-4.79a1.22,1.22,0,1,1,2.44,0v4.79A1.22,1.22,0,0,1,256,263.7Z"/><path class="cls-1" d="M168.22,264.5l.11-52.8a1.56,1.56,0,0,1,1.55-1.54h75.86a1.56,1.56,0,0,1,1.55,1.54l.11,52.8a1.54,1.54,0,0,1-1.55,1.55H169.77A1.54,1.54,0,0,1,168.22,264.5Z"/><polygon class="cls-11" points="173.71 260.57 173.81 215.64 241.81 215.64 241.91 260.57 173.71 260.57"/><path class="cls-2" d="M172,212.56a1.21,1.21,0,1,1-1.21-1.21A1.21,1.21,0,0,1,172,212.56Z"/><path class="cls-2" d="M171.69,263.65a1.22,1.22,0,1,1-1.21-1.21A1.21,1.21,0,0,1,171.69,263.65Z"/><path class="cls-2" d="M245.9,212.56a1.21,1.21,0,1,1-1.21-1.21A1.21,1.21,0,0,1,245.9,212.56Z"/><path class="cls-2" d="M246.32,263.77a1.21,1.21,0,1,1-1.21-1.21A1.22,1.22,0,0,1,246.32,263.77Z"/><path class="cls-10" d="M225.16,234.8a.76.76,0,0,1-.75-.76v-8.13a.76.76,0,0,1,.4-.67l10.33-5.47a.76.76,0,0,1,1.11.67v11.78a.75.75,0,0,1-.62.74l-10.34,1.83Zm.76-8.43v6.77l8.82-1.56V221.7Z"/><path class="cls-10" d="M235.49,244.75h-.13L225,242.92a.76.76,0,0,1-.62-.75V234a.75.75,0,0,1,.62-.74l10.33-1.83a.73.73,0,0,1,.62.17.75.75,0,0,1,.27.58V244a.78.78,0,0,1-.27.58A.79.79,0,0,1,235.49,244.75Zm-9.57-3.21,8.82,1.56v-10l-8.82,1.56Z"/><path class="cls-10" d="M235.49,256.53a.85.85,0,0,1-.35-.08L224.81,251a.75.75,0,0,1-.4-.67v-8.13a.75.75,0,0,1,.88-.74l10.34,1.82a.76.76,0,0,1,.62.75v11.78a.77.77,0,0,1-.37.65A.76.76,0,0,1,235.49,256.53Zm-9.57-6.68,8.82,4.67v-9.89l-8.82-1.56Z"/><path class="cls-10" d="M219.72,235.76A.76.76,0,0,1,219,235v-6.2a.76.76,0,0,1,.41-.67l5.44-2.89a.75.75,0,0,1,.74,0,.74.74,0,0,1,.37.64V234a.76.76,0,0,1-.63.75l-5.44,1Zm.76-6.51v4.85l3.93-.69v-6.24Z"/><path class="cls-10" d="M225.16,242.93H225l-5.44-1a.75.75,0,0,1-.63-.74V235a.76.76,0,0,1,.63-.74l5.44-1a.77.77,0,0,1,.62.16.78.78,0,0,1,.27.58v8.13a.76.76,0,0,1-.76.76Zm-4.68-2.35,3.93.69v-6.33l-3.93.7Z"/><path class="cls-10" d="M225.16,251.06a.73.73,0,0,1-.35-.09l-5.44-2.89a.74.74,0,0,1-.41-.66v-6.21a.76.76,0,0,1,.27-.58.78.78,0,0,1,.62-.16l5.44,1a.74.74,0,0,1,.63.74v8.13a.76.76,0,0,1-.37.65A.77.77,0,0,1,225.16,251.06Zm-4.68-4.1,3.93,2.08v-6.23l-3.93-.7Z"/><path class="cls-10" d="M190.46,234.8h-.13L180,233a.75.75,0,0,1-.62-.74V220.44a.76.76,0,0,1,1.11-.67l10.33,5.47a.76.76,0,0,1,.4.67V234a.76.76,0,0,1-.75.76Zm-9.58-3.22,8.82,1.56v-6.77l-8.82-4.67Z"/><path class="cls-10" d="M180.13,244.75a.79.79,0,0,1-.49-.17.78.78,0,0,1-.27-.58V232.22a.75.75,0,0,1,.27-.58.74.74,0,0,1,.62-.17l10.33,1.83a.75.75,0,0,1,.62.74v8.13a.76.76,0,0,1-.62.75l-10.33,1.82Zm.75-11.63v10l8.82-1.56v-6.86Z"/><path class="cls-10" d="M180.13,256.53a.76.76,0,0,1-.39-.1.77.77,0,0,1-.37-.65V244a.76.76,0,0,1,.62-.75l10.34-1.82a.75.75,0,0,1,.88.74v8.13a.75.75,0,0,1-.4.67l-10.33,5.48A.85.85,0,0,1,180.13,256.53Zm.75-11.9v9.89l8.82-4.67v-6.78Z"/><path class="cls-10" d="M195.9,235.76h-.13l-5.44-1a.76.76,0,0,1-.63-.75v-8.13a.74.74,0,0,1,.37-.64.75.75,0,0,1,.74,0l5.44,2.89a.76.76,0,0,1,.41.67V235a.76.76,0,0,1-.76.76Zm-4.69-2.35,3.93.69v-4.85l-3.93-2.08Z"/><path class="cls-10" d="M190.46,242.93a.76.76,0,0,1-.76-.76V234a.78.78,0,0,1,.27-.58.77.77,0,0,1,.62-.16l5.44,1a.76.76,0,0,1,.63.74v6.21a.75.75,0,0,1-.63.74l-5.44,1Zm.75-8v6.33l3.93-.69v-4.94Z"/><path class="cls-10" d="M190.46,251.06a.77.77,0,0,1-.39-.11.76.76,0,0,1-.37-.65v-8.13a.74.74,0,0,1,.63-.74l5.44-1a.75.75,0,0,1,.89.74v6.21a.74.74,0,0,1-.41.66L190.81,251A.73.73,0,0,1,190.46,251.06Zm.75-8.25V249l3.93-2.08v-4.85Z"/><path class="cls-1" d="M207.81,245.73a7.57,7.57,0,1,1,7.57-7.56A7.58,7.58,0,0,1,207.81,245.73Zm0-13.57a6,6,0,1,0,6,6A6,6,0,0,0,207.81,232.16Z"/><path class="cls-1" d="M207.81,261.6a.78.78,0,0,1-.78-.78V215.51a.78.78,0,0,1,1.56,0v45.31A.78.78,0,0,1,207.81,261.6Z"/><path class="cls-1" d="M241.91,238.94h-68.2a.77.77,0,0,1-.78-.77.78.78,0,0,1,.78-.78h68.2a.78.78,0,0,1,.78.78A.77.77,0,0,1,241.91,238.94Z"/><rect class="cls-1" y="200" width="127.09" height="76.33" rx="5.74"/><rect class="cls-2" x="5.09" y="204.7" width="116.92" height="66.94" rx="2.22"/><rect class="cls-3" x="7.11" y="207.05" width="112.87" height="62.24" rx="0.56"/><path class="cls-2" d="M83.72,262.15a4.4,4.4,0,1,1,4.39-4.4A4.4,4.4,0,0,1,83.72,262.15Z"/><path class="cls-8" d="M83.72,260.31a2.56,2.56,0,1,1,2.55-2.56A2.56,2.56,0,0,1,83.72,260.31Z"/><path class="cls-2" d="M97,262.15a4.4,4.4,0,1,1,4.39-4.4A4.41,4.41,0,0,1,97,262.15Z"/><path class="cls-7" d="M97,260.31a2.56,2.56,0,1,1,2.55-2.56A2.56,2.56,0,0,1,97,260.31Z"/><path class="cls-2" d="M110.2,262.15a4.4,4.4,0,1,1,4.4-4.4A4.41,4.41,0,0,1,110.2,262.15Z"/><path class="cls-10" d="M110.2,260.31a2.56,2.56,0,1,1,2.55-2.56A2.56,2.56,0,0,1,110.2,260.31Z"/><rect class="cls-1" x="78.48" y="211.78" width="36.11" height="36.11" rx="1.86"/><path class="cls-2" d="M105.15,233.7a9.42,9.42,0,1,0-12.49,4.65A9.42,9.42,0,0,0,105.15,233.7Z"/><path class="cls-2" d="M100.76,225.07l-3.52-1.61,1.51-3.3a1.94,1.94,0,0,1,3.52,1.61Z"/><path class="cls-1" d="M102.13,232.32a6.1,6.1,0,1,0-8.09,3A6.11,6.11,0,0,0,102.13,232.32Z"/><path class="cls-2" d="M82.73,245a1.21,1.21,0,1,1-1.21-1.21A1.21,1.21,0,0,1,82.73,245Z"/><path class="cls-2" d="M112.82,245a1.21,1.21,0,1,1-1.21-1.21A1.21,1.21,0,0,1,112.82,245Z"/><path class="cls-2" d="M82.73,214.76a1.21,1.21,0,1,1-1.21-1.21A1.21,1.21,0,0,1,82.73,214.76Z"/><path class="cls-2" d="M112.82,214.76a1.21,1.21,0,1,1-1.21-1.21A1.21,1.21,0,0,1,112.82,214.76Z"/><path class="cls-2" d="M96.58,219.09a.78.78,0,0,1-.78-.78v-3a.78.78,0,1,1,1.56,0v3A.78.78,0,0,1,96.58,219.09Z"/><path class="cls-2" d="M96.58,245.08a.78.78,0,0,1-.78-.79v-3a.78.78,0,0,1,1.56,0v3A.78.78,0,0,1,96.58,245.08Z"/><path class="cls-2" d="M111.09,230.57h-3a.79.79,0,0,1,0-1.57h3a.79.79,0,0,1,0,1.57Z"/><path class="cls-2" d="M85.1,230.57h-3a.79.79,0,0,1,0-1.57h3a.79.79,0,1,1,0,1.57Z"/><path class="cls-2" d="M105.69,239.72a.78.78,0,0,1-.55-.23l-1-1a.78.78,0,0,1,0-1.11.8.8,0,0,1,1.11,0l1,1a.8.8,0,0,1,0,1.11A.82.82,0,0,1,105.69,239.72Z"/><path class="cls-2" d="M88.43,222.45a.78.78,0,0,1-.56-.23l-1-1a.78.78,0,0,1,0-1.11.77.77,0,0,1,1.1,0l1,1a.77.77,0,0,1,0,1.1A.74.74,0,0,1,88.43,222.45Z"/><path class="cls-2" d="M87.39,239.72a.79.79,0,0,1-.55-1.34l1-1a.8.8,0,0,1,1.11,0,.78.78,0,0,1,0,1.11l-1,1A.78.78,0,0,1,87.39,239.72Z"/><path class="cls-2" d="M104.65,222.45a.74.74,0,0,1-.55-.23.77.77,0,0,1,0-1.1l1-1a.78.78,0,0,1,1.11,0,.8.8,0,0,1,0,1.11l-1,1A.78.78,0,0,1,104.65,222.45Z"/><path class="cls-2" d="M100.29,231.48a4.08,4.08,0,1,0-5.41,2A4.08,4.08,0,0,0,100.29,231.48Z"/><path class="cls-1" d="M11.84,210.65H73a.68.68,0,0,1,.68.68v53.39a.69.69,0,0,1-.69.69H11.84a.69.69,0,0,1-.69-.69V211.34A.69.69,0,0,1,11.84,210.65Z"/><path class="cls-2" d="M15.4,213.25A1.21,1.21,0,1,1,14.19,212,1.22,1.22,0,0,1,15.4,213.25Z"/><path class="cls-2" d="M15.4,262.65a1.21,1.21,0,1,1-1.21-1.21A1.21,1.21,0,0,1,15.4,262.65Z"/><path class="cls-2" d="M71.83,213.25A1.21,1.21,0,1,1,70.62,212,1.22,1.22,0,0,1,71.83,213.25Z"/><path class="cls-2" d="M71.83,262.65a1.21,1.21,0,1,1-1.21-1.21A1.21,1.21,0,0,1,71.83,262.65Z"/><path class="cls-2" d="M68.13,225.48a1.34,1.34,0,0,1-1.34,1.33H16.58a1.34,1.34,0,0,1,0-2.67H66.79a1.34,1.34,0,0,1,1.34,1.34Z"/><path class="cls-2" d="M68.13,238.16a1.34,1.34,0,0,1-1.34,1.34H16.58a1.34,1.34,0,0,1,0-2.67H66.79a1.34,1.34,0,0,1,1.34,1.33Z"/><path class="cls-2" d="M68.13,250.94a1.34,1.34,0,0,1-1.34,1.33H16.58a1.34,1.34,0,0,1,0-2.67H66.79a1.34,1.34,0,0,1,1.34,1.34Z"/><rect class="cls-7" x="35.41" y="246.88" width="17.21" height="7.76" rx="0.88"/><rect class="cls-7" x="36.66" y="248.14" width="14.7" height="5.25"/><rect class="cls-6" x="37.65" y="247.92" width="1.26" height="5.69"/><rect class="cls-6" x="39.95" y="247.92" width="1.26" height="5.69"/><rect class="cls-6" x="42.25" y="247.92" width="1.26" height="5.69"/><rect class="cls-6" x="44.56" y="247.92" width="1.26" height="5.69"/><rect class="cls-6" x="46.86" y="247.92" width="1.26" height="5.69"/><rect class="cls-6" x="49.16" y="247.92" width="1.26" height="5.69"/><rect class="cls-8" x="43.03" y="234.11" width="17.21" height="7.76" rx="0.88"/><rect class="cls-8" x="44.28" y="235.36" width="14.7" height="5.25"/><rect class="cls-9" x="45.27" y="235.15" width="1.26" height="5.69"/><rect class="cls-9" x="47.57" y="235.15" width="1.26" height="5.69"/><rect class="cls-9" x="49.87" y="235.15" width="1.26" height="5.69"/><rect class="cls-9" x="52.18" y="235.15" width="1.26" height="5.69"/><rect class="cls-9" x="54.48" y="235.15" width="1.26" height="5.69"/><rect class="cls-9" x="56.78" y="235.15" width="1.26" height="5.69"/><rect class="cls-11" x="17.95" y="221.42" width="17.21" height="7.76" rx="0.88"/><rect class="cls-11" x="19.21" y="222.68" width="14.7" height="5.25"/><rect class="cls-10" x="20.2" y="222.46" width="1.26" height="5.69"/><rect class="cls-10" x="22.5" y="222.46" width="1.26" height="5.69"/><rect class="cls-10" x="24.8" y="222.46" width="1.26" height="5.69"/><rect class="cls-10" x="27.11" y="222.46" width="1.26" height="5.69"/><rect class="cls-10" x="29.41" y="222.46" width="1.26" height="5.69"/><rect class="cls-10" x="31.71" y="222.46" width="1.26" height="5.69"/><rect class="cls-1" x="289.76" y="200" width="127.09" height="76.33" rx="5.74"/><rect class="cls-2" x="294.84" y="204.7" width="116.92" height="66.94" rx="2.22"/><rect class="cls-3" x="296.86" y="207.05" width="112.87" height="62.24" rx="0.56"/><rect class="cls-1" x="395.84" y="243.21" width="9.51" height="20.25" rx="0.65"/><rect class="cls-11" x="397.5" y="244.87" width="6.19" height="16.93"/><rect class="cls-10" x="397.5" y="247.27" width="6.19" height="6.59"/><rect class="cls-1" x="394.59" y="212.5" width="12" height="26.77" rx="1.79"/><path class="cls-2" d="M398.07,237.16a1.21,1.21,0,1,1-1.21-1.21A1.21,1.21,0,0,1,398.07,237.16Z"/><circle class="cls-2" cx="404.2" cy="237.16" r="1.21"/><path class="cls-2" d="M398.07,215.13a1.21,1.21,0,1,1-1.21-1.21A1.21,1.21,0,0,1,398.07,215.13Z"/><circle class="cls-2" cx="404.2" cy="215.13" r="1.21"/><polygon class="cls-7" points="402.7 218.87 397.88 226.21 401.25 226.21 402.7 218.87"/><polygon class="cls-7" points="398.61 232.67 400.05 225.33 403.43 225.33 398.61 232.67"/><rect class="cls-2" x="301.51" y="212.5" width="89.93" height="51.34" rx="2.51"/><polygon class="cls-6" points="380.06 231.12 380.06 238.93 370.68 238.93 370.68 245.21 387.92 245.21 387.92 231.12 380.06 231.12"/><polygon class="cls-7" points="381.2 232.26 381.2 240.07 371.82 240.07 371.82 244.07 386.77 244.07 386.77 232.26 381.2 232.26"/><rect class="cls-6" x="370.68" y="246.73" width="17.23" height="6.28"/><rect class="cls-7" x="371.82" y="247.87" width="14.95" height="4"/><rect class="cls-6" x="305.03" y="246.73" width="17.23" height="6.28"/><rect class="cls-7" x="306.17" y="247.87" width="14.95" height="4"/><rect class="cls-3" x="323.79" y="246.73" width="7.86" height="6.28"/><rect class="cls-1" x="324.93" y="247.87" width="5.57" height="4"/><rect class="cls-6" x="305.03" y="215.51" width="7.86" height="6.28"/><rect class="cls-7" x="306.17" y="216.65" width="5.57" height="4"/><rect class="cls-3" x="314.41" y="215.51" width="7.86" height="6.28"/><rect class="cls-1" x="315.55" y="216.65" width="5.57" height="4"/><rect class="cls-3" x="323.79" y="215.51" width="7.86" height="6.28"/><rect class="cls-1" x="324.93" y="216.65" width="5.57" height="4"/><rect class="cls-3" x="333.17" y="215.51" width="7.86" height="6.28"/><rect class="cls-1" x="334.31" y="216.65" width="5.57" height="4"/><rect class="cls-3" x="342.55" y="215.51" width="7.86" height="6.28"/><rect class="cls-1" x="343.69" y="216.65" width="5.57" height="4"/><rect class="cls-3" x="351.92" y="215.51" width="7.86" height="6.28"/><rect class="cls-1" x="353.07" y="216.65" width="5.57" height="4"/><rect class="cls-3" x="361.3" y="215.51" width="7.86" height="6.28"/><rect class="cls-1" x="362.45" y="216.65" width="5.57" height="4"/><rect class="cls-3" x="370.68" y="215.51" width="7.86" height="6.28"/><rect class="cls-1" x="371.82" y="216.65" width="5.57" height="4"/><rect class="cls-3" x="380.06" y="215.51" width="7.86" height="6.28"/><rect class="cls-1" x="381.2" y="216.65" width="5.57" height="4"/><rect class="cls-3" x="305.03" y="223.32" width="7.86" height="6.28"/><rect class="cls-1" x="306.17" y="224.46" width="5.57" height="4"/><rect class="cls-3" x="314.41" y="223.32" width="7.86" height="6.28"/><rect class="cls-1" x="315.55" y="224.46" width="5.57" height="4"/><rect class="cls-3" x="323.79" y="223.32" width="7.86" height="6.28"/><rect class="cls-1" x="324.93" y="224.46" width="5.57" height="4"/><rect class="cls-3" x="333.17" y="223.32" width="7.86" height="6.28"/><rect class="cls-1" x="334.31" y="224.46" width="5.57" height="4"/><rect class="cls-3" x="342.55" y="223.32" width="7.86" height="6.28"/><rect class="cls-1" x="343.69" y="224.46" width="5.57" height="4"/><rect class="cls-3" x="351.92" y="223.32" width="7.86" height="6.28"/><rect class="cls-1" x="353.07" y="224.46" width="5.57" height="4"/><rect class="cls-3" x="361.3" y="223.32" width="7.86" height="6.28"/><rect class="cls-1" x="362.45" y="224.46" width="5.57" height="4"/><rect class="cls-3" x="361.3" y="231.12" width="7.86" height="6.28"/><rect class="cls-1" x="362.45" y="232.26" width="5.57" height="4"/><rect class="cls-3" x="380.06" y="223.32" width="7.86" height="6.28"/><rect class="cls-1" x="381.2" y="224.46" width="5.57" height="4"/><rect class="cls-3" x="305.03" y="231.12" width="7.86" height="6.28"/><rect class="cls-1" x="306.17" y="232.26" width="5.57" height="4"/><rect class="cls-3" x="314.41" y="231.12" width="7.86" height="6.28"/><rect class="cls-1" x="315.55" y="232.26" width="5.57" height="4"/><rect class="cls-3" x="323.79" y="231.12" width="7.86" height="6.28"/><rect class="cls-1" x="324.93" y="232.26" width="5.57" height="4"/><rect class="cls-3" x="333.17" y="231.12" width="7.86" height="6.28"/><rect class="cls-1" x="334.31" y="232.26" width="5.57" height="4"/><rect class="cls-3" x="342.55" y="231.12" width="7.86" height="6.28"/><rect class="cls-1" x="343.69" y="232.26" width="5.57" height="4"/><rect class="cls-3" x="351.92" y="231.12" width="7.86" height="6.28"/><rect class="cls-1" x="353.07" y="232.26" width="5.57" height="4"/><rect class="cls-3" x="361.3" y="238.93" width="7.86" height="6.28"/><rect class="cls-1" x="362.45" y="240.07" width="5.57" height="4"/><rect class="cls-3" x="370.68" y="223.41" width="7.86" height="6.28"/><rect class="cls-1" x="371.82" y="224.55" width="5.57" height="4"/><rect class="cls-3" x="305.03" y="238.93" width="7.86" height="6.28"/><rect class="cls-1" x="306.17" y="240.07" width="5.57" height="4"/><rect class="cls-3" x="314.41" y="238.93" width="7.86" height="6.28"/><rect class="cls-1" x="315.55" y="240.07" width="5.57" height="4"/><rect class="cls-3" x="323.79" y="238.93" width="7.86" height="6.28"/><rect class="cls-1" x="324.93" y="240.07" width="5.57" height="4"/><rect class="cls-3" x="333.17" y="238.93" width="7.86" height="6.28"/><rect class="cls-1" x="334.31" y="240.07" width="5.57" height="4"/><rect class="cls-3" x="342.55" y="238.93" width="7.86" height="6.28"/><rect class="cls-1" x="343.69" y="240.07" width="5.57" height="4"/><rect class="cls-3" x="351.92" y="238.93" width="7.86" height="6.28"/><rect class="cls-1" x="353.07" y="240.07" width="5.57" height="4"/><rect class="cls-3" x="370.68" y="231.12" width="7.86" height="6.28"/><rect class="cls-1" x="371.82" y="232.26" width="5.57" height="4"/><rect class="cls-3" x="323.79" y="246.73" width="7.86" height="6.28"/><rect class="cls-1" x="324.93" y="247.87" width="5.57" height="4"/><rect class="cls-3" x="305.03" y="254.54" width="7.86" height="6.28"/><rect class="cls-1" x="306.17" y="255.68" width="5.57" height="4"/><rect class="cls-3" x="314.41" y="254.54" width="7.86" height="6.28"/><rect class="cls-1" x="315.55" y="255.68" width="5.57" height="4"/><rect class="cls-3" x="323.79" y="254.54" width="7.86" height="6.28"/><rect class="cls-1" x="324.93" y="255.68" width="5.57" height="4"/><rect class="cls-3" x="333.17" y="246.73" width="7.86" height="6.28"/><rect class="cls-1" x="334.31" y="247.87" width="5.57" height="4"/><rect class="cls-3" x="342.55" y="246.73" width="7.86" height="6.28"/><rect class="cls-1" x="343.69" y="247.87" width="5.57" height="4"/><rect class="cls-3" x="351.92" y="246.73" width="7.86" height="6.28"/><rect class="cls-1" x="353.07" y="247.87" width="5.57" height="4"/><rect class="cls-3" x="361.3" y="246.73" width="7.86" height="6.28"/><rect class="cls-1" x="362.45" y="247.87" width="5.57" height="4"/><rect class="cls-3" x="370.68" y="254.54" width="7.86" height="6.28"/><rect class="cls-1" x="371.82" y="255.68" width="5.57" height="4"/><rect class="cls-3" x="380.06" y="254.54" width="7.86" height="6.28"/><rect class="cls-1" x="381.2" y="255.68" width="5.57" height="4"/><rect class="cls-6" x="333.17" y="254.54" width="26.61" height="6.28"/><rect class="cls-7" x="334.31" y="255.68" width="24.33" height="4"/><rect class="cls-3" x="361.3" y="254.54" width="7.86" height="6.28"/><rect class="cls-1" x="362.45" y="255.68" width="5.57" height="4"/><rect class="cls-1" x="144.27" width="127.09" height="76.33" rx="5.74"/><rect class="cls-2" x="149.35" y="4.7" width="116.92" height="66.94" rx="2.22"/><rect class="cls-3" x="151.37" y="7.05" width="112.87" height="62.24" rx="0.56"/><rect class="cls-1" x="155.19" y="9.98" width="46.88" height="44.92" rx="4.26"/><rect class="cls-2" x="162.81" y="16.05" width="8.52" height="8.53" rx="1.95"/><rect class="cls-5" x="164.23" y="17.46" width="5.68" height="5.7" rx="1.05"/><rect class="cls-2" x="162.81" y="28.17" width="8.52" height="8.53" rx="1.95"/><rect class="cls-5" x="164.23" y="29.59" width="5.68" height="5.7" rx="1.05"/><rect class="cls-2" x="162.81" y="40.3" width="8.52" height="8.53" rx="1.95"/><rect class="cls-5" x="164.23" y="41.72" width="5.68" height="5.7" rx="1.05"/><rect class="cls-2" x="174.37" y="16.05" width="8.52" height="8.53" rx="1.95"/><rect class="cls-5" x="175.79" y="17.46" width="5.68" height="5.7" rx="1.05"/><rect class="cls-2" x="174.37" y="28.17" width="8.52" height="8.53" rx="1.95"/><rect class="cls-5" x="175.79" y="29.59" width="5.68" height="5.7" rx="1.05"/><rect class="cls-2" x="185.94" y="16.05" width="8.52" height="8.53" rx="1.95"/><rect class="cls-5" x="187.36" y="17.46" width="5.68" height="5.7" rx="1.05"/><rect class="cls-2" x="185.94" y="28.17" width="8.52" height="8.53" rx="1.95"/><rect class="cls-5" x="187.36" y="29.59" width="5.68" height="5.7" rx="1.05"/><rect class="cls-6" x="174.37" y="40.3" width="20.08" height="8.53" rx="1.95"/><rect class="cls-7" x="175.79" y="41.72" width="17.25" height="5.7" rx="1.05"/><path class="cls-2" d="M160.37,51a1.22,1.22,0,1,1-1.21-1.21A1.22,1.22,0,0,1,160.37,51Z"/><path class="cls-2" d="M199.32,51a1.22,1.22,0,1,1-1.21-1.21A1.22,1.22,0,0,1,199.32,51Z"/><path class="cls-2" d="M160.37,13.85a1.22,1.22,0,1,1-1.21-1.21A1.21,1.21,0,0,1,160.37,13.85Z"/><path class="cls-2" d="M199.32,13.85a1.22,1.22,0,1,1-1.21-1.21A1.21,1.21,0,0,1,199.32,13.85Z"/><rect class="cls-1" x="209.49" y="10.81" width="46.12" height="29.28" rx="2.21"/><rect class="cls-1" x="209.49" y="44.08" width="46.12" height="22.01" rx="2.21"/><path class="cls-2" d="M217.63,35.12a2.85,2.85,0,0,1-2.12-.94,2.9,2.9,0,0,1-.74-2.2,17.86,17.86,0,0,1,35.56,0,2.88,2.88,0,0,1-2.86,3.14Z"/><path class="cls-3" d="M247.47,33.3a1.05,1.05,0,0,0,1.05-1.15,16,16,0,0,0-31.94,0,1.05,1.05,0,0,0,1,1.15Z"/><path class="cls-2" d="M213.37,13.41a1.21,1.21,0,1,1-1.21-1.21A1.21,1.21,0,0,1,213.37,13.41Z"/><path class="cls-2" d="M254.14,13.41a1.22,1.22,0,1,1-1.21-1.21A1.21,1.21,0,0,1,254.14,13.41Z"/><path class="cls-2" d="M213.37,37.43a1.21,1.21,0,1,1-1.21-1.21A1.21,1.21,0,0,1,213.37,37.43Z"/><path class="cls-2" d="M213.37,46.76a1.21,1.21,0,1,1-1.21-1.21A1.21,1.21,0,0,1,213.37,46.76Z"/><path class="cls-2" d="M213.37,63.5a1.21,1.21,0,1,1-1.21-1.21A1.21,1.21,0,0,1,213.37,63.5Z"/><path class="cls-2" d="M254.14,46.76a1.22,1.22,0,1,1-1.21-1.21A1.21,1.21,0,0,1,254.14,46.76Z"/><path class="cls-2" d="M254.14,63.5a1.22,1.22,0,1,1-1.21-1.21A1.21,1.21,0,0,1,254.14,63.5Z"/><path class="cls-2" d="M254.14,37.43a1.22,1.22,0,1,1-1.21-1.21A1.21,1.21,0,0,1,254.14,37.43Z"/><path class="cls-1" d="M241.27,33.3a8.72,8.72,0,0,0-17.44,0Z"/><path class="cls-7" d="M236.64,33.3a4.09,4.09,0,0,0-8.18,0Z"/><polygon class="cls-7" points="235.01 33.3 241.59 22.39 230.91 31.96 232.53 33.3 235.01 33.3"/><path class="cls-2" d="M234.73,33.3a2.18,2.18,0,0,0-4-1.19,2.27,2.27,0,0,0-.36,1.19Z"/><path class="cls-13" d="M238.51,22.45a.39.39,0,0,1-.23-.07.44.44,0,0,1-.16-.62l1-1.78a.45.45,0,0,1,.62-.17.46.46,0,0,1,.17.62l-1,1.79A.45.45,0,0,1,238.51,22.45Z"/><path class="cls-13" d="M243.1,26.68a.47.47,0,0,1-.39-.23.45.45,0,0,1,.17-.62l1.87-1.08a.45.45,0,0,1,.62.17.45.45,0,0,1-.17.62l-1.87,1.08A.46.46,0,0,1,243.1,26.68Z"/><path class="cls-13" d="M220,32.77h-2.31a.47.47,0,0,1-.46-.46.46.46,0,0,1,.46-.45H220a.45.45,0,0,1,.46.45A.46.46,0,0,1,220,32.77Z"/><path class="cls-13" d="M247.43,32.77h-2.31a.47.47,0,0,1-.46-.46.46.46,0,0,1,.46-.45h2.31a.45.45,0,0,1,.46.45A.46.46,0,0,1,247.43,32.77Z"/><path class="cls-13" d="M222,26.68a.46.46,0,0,1-.23-.06l-1.87-1.08a.45.45,0,0,1,.45-.79l1.87,1.08a.45.45,0,0,1,.17.62A.47.47,0,0,1,222,26.68Z"/><path class="cls-13" d="M226.59,22.45a.45.45,0,0,1-.39-.23l-1-1.79a.46.46,0,0,1,.17-.62A.45.45,0,0,1,226,20l1,1.78a.44.44,0,0,1-.16.62A.39.39,0,0,1,226.59,22.45Z"/><path class="cls-13" d="M232.55,20.94a.45.45,0,0,1-.45-.45v-2a.45.45,0,0,1,.45-.45.46.46,0,0,1,.46.45v2A.46.46,0,0,1,232.55,20.94Z"/><path class="cls-2" d="M238.51,22.45a.39.39,0,0,1-.23-.07.44.44,0,0,1-.16-.62l1-1.78a.45.45,0,0,1,.62-.17.46.46,0,0,1,.17.62l-1,1.79A.45.45,0,0,1,238.51,22.45Z"/><path class="cls-2" d="M243.1,26.68a.47.47,0,0,1-.39-.23.45.45,0,0,1,.17-.62l1.87-1.08a.45.45,0,0,1,.62.17.45.45,0,0,1-.17.62l-1.87,1.08A.46.46,0,0,1,243.1,26.68Z"/><path class="cls-2" d="M247.43,32.77h-2.31a.47.47,0,0,1-.46-.46.46.46,0,0,1,.46-.45h2.31a.45.45,0,0,1,.46.45A.46.46,0,0,1,247.43,32.77Z"/><path class="cls-2" d="M220,32.77h-2.31a.47.47,0,0,1-.46-.46.46.46,0,0,1,.46-.45H220a.45.45,0,0,1,.46.45A.46.46,0,0,1,220,32.77Z"/><path class="cls-2" d="M222,26.68a.46.46,0,0,1-.23-.06l-1.87-1.08a.45.45,0,0,1,.45-.79l1.87,1.08a.45.45,0,0,1,.17.62A.47.47,0,0,1,222,26.68Z"/><path class="cls-2" d="M226.59,22.45a.45.45,0,0,1-.39-.23l-1-1.79a.46.46,0,0,1,.17-.62A.45.45,0,0,1,226,20l1,1.78a.44.44,0,0,1-.16.62A.39.39,0,0,1,226.59,22.45Z"/><path class="cls-2" d="M232.55,20.94a.45.45,0,0,1-.45-.45v-2a.45.45,0,0,1,.45-.45.46.46,0,0,1,.46.45v2A.46.46,0,0,1,232.55,20.94Z"/><circle class="cls-2" cx="223.52" cy="55.3" r="7.1"/><path class="cls-1" d="M223.52,61a5.71,5.71,0,1,0-5.71-5.71A5.71,5.71,0,0,0,223.52,61Z"/><circle class="cls-2" cx="223.52" cy="55.3" r="4.32"/><path class="cls-10" d="M223.52,58.45a3.16,3.16,0,1,0-3.16-3.15A3.16,3.16,0,0,0,223.52,58.45Z"/><path class="cls-11" d="M224.38,56.15a1,1,0,0,0-.93-.8.93.93,0,0,0-.92.8l-.44,3.21h2.72Z"/><path class="cls-10" d="M223.45,60.91a1.37,1.37,0,0,1-1.37-1.37,1.09,1.09,0,0,1,0-.18,1.37,1.37,0,0,1,2.72,0,1.09,1.09,0,0,1,0,.18A1.37,1.37,0,0,1,223.45,60.91Z"/><circle class="cls-2" cx="241.13" cy="55.3" r="7.1"/><path class="cls-1" d="M241.13,49.59a5.71,5.71,0,1,1-5.71,5.71A5.7,5.7,0,0,1,241.13,49.59Z"/><path class="cls-2" d="M241.13,51a4.33,4.33,0,1,1-4.32,4.33A4.33,4.33,0,0,1,241.13,51Z"/><path class="cls-9" d="M241.13,52.14A3.16,3.16,0,1,1,238,55.3,3.15,3.15,0,0,1,241.13,52.14Z"/><path class="cls-8" d="M242,54.44a.93.93,0,0,1-1.85,0l-.43-3.2h2.71Z"/><path class="cls-9" d="M241.07,49.68a1.37,1.37,0,0,0-1.37,1.37,1.21,1.21,0,0,0,0,.19,1.37,1.37,0,0,0,2.71,0,1.23,1.23,0,0,0,0-.19A1.37,1.37,0,0,0,241.07,49.68Z"/><path class="cls-2" d="M202.07,60.49H155.19a.73.73,0,0,1-.72-.73.72.72,0,0,1,.72-.72h46.88a.72.72,0,0,1,.72.72A.73.73,0,0,1,202.07,60.49Z"/><path class="cls-2" d="M202.07,63H155.19a.72.72,0,0,1-.72-.72.73.73,0,0,1,.72-.73h46.88a.73.73,0,0,1,.72.73A.72.72,0,0,1,202.07,63Z"/><path class="cls-2" d="M202.07,65.54H155.19a.72.72,0,0,1-.72-.72.73.73,0,0,1,.72-.73h46.88a.73.73,0,0,1,.72.73A.72.72,0,0,1,202.07,65.54Z"/><rect class="cls-1" width="127.09" height="76.33" rx="5.74"/><rect class="cls-2" x="5.09" y="4.7" width="116.92" height="66.94" rx="2.22"/><rect class="cls-3" x="7.11" y="7.05" width="112.87" height="62.24" rx="0.56"/><rect class="cls-1" x="83.07" y="9.83" width="9.51" height="20.25" rx="0.65"/><rect class="cls-8" x="84.74" y="11.49" width="6.19" height="16.93"/><rect class="cls-9" x="84.74" y="13.9" width="6.19" height="6.59"/><rect class="cls-1" x="55.8" y="9.83" width="9.51" height="20.25" rx="0.65"/><rect class="cls-11" x="57.47" y="11.49" width="6.19" height="16.93"/><rect class="cls-10" x="57.47" y="13.9" width="6.19" height="6.59"/><rect class="cls-1" x="69.24" y="9.83" width="9.51" height="20.25" rx="0.65"/><rect class="cls-6" x="70.91" y="11.49" width="6.19" height="16.93"/><rect class="cls-7" x="70.91" y="19.43" width="6.19" height="6.59"/><rect class="cls-1" x="16.6" y="9.13" width="28.29" height="56.58" rx="3.4"/><rect class="cls-14" x="19.03" y="11.57" width="23.43" height="51.71" rx="0.96"/><path class="cls-15" d="M42.46,19.33v-.78H35.57v-7h-.78v7H26.7v-7h-.78v7H19v.78h6.89v6.59H19v.78h6.89v6.6H19v.78h6.89v6.59H19v.79h6.89v6.59H19v.78h6.89v6.59H19v.79h6.89v7.07h.78V56.21h8.09v7.07h.78V56.21h6.89v-.79H35.57V48.83h6.89v-.78H35.57V41.46h6.89v-.79H35.57V34.08h6.89V33.3H35.57V26.7h6.89v-.78H35.57V19.33ZM34.79,55.42H26.7V48.83h8.09Zm0-7.37H26.7V41.46h8.09Zm0-7.38H26.7V34.08h8.09Zm0-7.37H26.7V26.7h8.09Zm0-7.38H26.7V19.33h8.09Z"/><path class="cls-9" d="M39,26.36a.39.39,0,0,1-.39.39H31.23v5.12a.39.39,0,0,1-.39.39.4.4,0,0,1-.39-.39V26.75H21.87a.39.39,0,0,1-.4-.39.4.4,0,0,1,.4-.39H38.64A.4.4,0,0,1,39,26.36ZM21.68,24.5a.4.4,0,0,0,.39.39H36.19a.4.4,0,0,0,.39-.39.39.39,0,0,0-.39-.39H22.07A.39.39,0,0,0,21.68,24.5Zm16.51,3.28H34a.39.39,0,1,0,0,.78h4.21a.39.39,0,0,0,0-.78Zm.56-3.28a.57.57,0,1,0-1.13,0,.57.57,0,0,0,1.13,0Zm.5-10a.57.57,0,1,0,0,1.13.57.57,0,0,0,0-1.13ZM38,41.33a.36.36,0,0,1,0,.32,7.41,7.41,0,0,1-1,2.89,7.54,7.54,0,0,1-2.12,2.23.43.43,0,0,1-.24.16A7.38,7.38,0,0,1,23.27,40a.5.5,0,0,1,0-.21,7.39,7.39,0,0,1,.82-2.59s0,0,0-.05l.19-.33a7.39,7.39,0,0,1,2.18-2.27.39.39,0,0,1,.16-.1A7.37,7.37,0,0,1,38,41.33Zm-2.16-4.72a5.76,5.76,0,0,1,.07,1.27,9.07,9.07,0,0,1-.32,1.86l1.66,1A6.68,6.68,0,0,0,35.81,36.61ZM33.09,43.1l-2.54-1.55-.95,1.56,2.31,1.41A11.12,11.12,0,0,0,33.09,43.1Zm-9-3.36,1.84,1.12a12.94,12.94,0,0,1,.75-1.68l-2.05-1.26A6.67,6.67,0,0,0,24.09,39.74Zm2.53,1.54,2.31,1.42,1-1.56-2.54-1.55A11.2,11.2,0,0,0,26.62,41.28Zm1.12-2.37,2.56,1.56,1.35-2.21-2.32-1.41A11.14,11.14,0,0,0,27.74,38.91Zm5.34-4.12a5.18,5.18,0,0,0-3.16,1.5l2.13,1.31,1.66-2.71A2.19,2.19,0,0,0,33.08,34.79Zm-6.69,7.27c-.43,1.74-.29,3.26.48,4l1.65-2.7Zm1.78,4.52a5.23,5.23,0,0,0,3.16-1.5l-2.14-1.3-1.65,2.7A1.81,1.81,0,0,0,28.17,46.58Zm5.35-4.14a11.38,11.38,0,0,0,1.11-2.35l-2.32-1.42L31,40.88Zm1.34-3.13a7.11,7.11,0,0,0,.23-1.47,3.23,3.23,0,0,0-.71-2.54L32.72,38Zm-4.23-5.23a6.59,6.59,0,0,0-3.08.76l1.67,1a7.56,7.56,0,0,1,2.66-1.65A6.55,6.55,0,0,0,30.63,34.08ZM25,37.23l2.07,1.27a12.41,12.41,0,0,1,1.58-2.07L26.8,35.3A6.52,6.52,0,0,0,25,37.23Zm.42,7.52a7.66,7.66,0,0,1,.26-3.12l-1.65-1A6.62,6.62,0,0,0,25.42,44.75Zm5.2,2.54a6.55,6.55,0,0,0,3.07-.76l-1.66-1a7.65,7.65,0,0,1-2.66,1.65,6.46,6.46,0,0,0,1.25.13Zm5.19-2.53-2.05-1.25a11.85,11.85,0,0,1-1.16,1.43l1.84,1.13A6.08,6.08,0,0,0,35.81,44.76Zm1.35-3.12-1.85-1.13a12.49,12.49,0,0,1-1.12,2.34l2.07,1.27A6.64,6.64,0,0,0,37.16,41.64ZM20.59,52.9H30.84a.4.4,0,0,0,0-.79H20.59a.4.4,0,0,0,0,.79Zm0,1.67h7.66a.4.4,0,0,0,.39-.39.39.39,0,0,0-.39-.39H20.59a.38.38,0,0,0-.39.39A.39.39,0,0,0,20.59,54.57Zm0,1.67h10a.38.38,0,0,0,.39-.39.39.39,0,0,0-.39-.39h-10a.39.39,0,0,0-.39.39A.38.38,0,0,0,20.59,56.24Zm0,1.68H33a.4.4,0,0,0,0-.79H20.59a.4.4,0,0,0,0,.79Zm0,1.67h7.66a.4.4,0,0,0,.39-.39.39.39,0,0,0-.39-.39H20.59a.38.38,0,0,0-.39.39A.39.39,0,0,0,20.59,59.59Zm16.53.89H20.59a.39.39,0,0,0-.39.39.38.38,0,0,0,.39.39H37.12a.38.38,0,0,0,.39-.39A.39.39,0,0,0,37.12,60.48ZM20.6,15.1A2.11,2.11,0,0,1,22.7,13H32a2.12,2.12,0,0,1,0,4.23H22.7A2.1,2.1,0,0,1,20.6,15.1Zm.79,0a1.32,1.32,0,0,0,1.31,1.35H32a1.34,1.34,0,0,0,0-2.67H22.7A1.32,1.32,0,0,0,21.39,15.07Zm1.23.4h9.3a.38.38,0,0,0,.39-.39.39.39,0,0,0-.39-.39h-9.3a.39.39,0,0,0-.39.39A.38.38,0,0,0,22.62,15.47Zm18.74-.39A2.12,2.12,0,1,1,39.25,13,2.11,2.11,0,0,1,41.36,15.08Zm-.78,0a1.33,1.33,0,1,0-1.33,1.34A1.34,1.34,0,0,0,40.58,15.08Z"/><path class="cls-16" d="M13.22,22.9H16.6V15.25H13.22A3.79,3.79,0,0,0,9.43,19v.08A3.79,3.79,0,0,0,13.22,22.9Z"/><path class="cls-16" d="M13.22,59.61H16.6V52H13.22a3.79,3.79,0,0,0-3.79,3.78v.08A3.79,3.79,0,0,0,13.22,59.61Z"/><path class="cls-16" d="M48.28,22.9H44.89V15.25h3.39A3.78,3.78,0,0,1,52.06,19v.08A3.79,3.79,0,0,1,48.28,22.9Z"/><path class="cls-16" d="M48.28,59.61H44.89V52h3.39a3.78,3.78,0,0,1,3.78,3.78v.08A3.78,3.78,0,0,1,48.28,59.61Z"/><path class="cls-2" d="M49.87,55.79a1.26,1.26,0,1,1-1.26-1.26A1.26,1.26,0,0,1,49.87,55.79Z"/><path class="cls-2" d="M14.27,55.79A1.26,1.26,0,1,1,13,54.53,1.26,1.26,0,0,1,14.27,55.79Z"/><path class="cls-2" d="M49.87,19.07a1.26,1.26,0,1,1-1.26-1.25A1.25,1.25,0,0,1,49.87,19.07Z"/><path class="cls-2" d="M14.27,19.07A1.26,1.26,0,1,1,13,17.82,1.25,1.25,0,0,1,14.27,19.07Z"/><path class="cls-1" d="M99,9.58h15.46a2.18,2.18,0,0,1,2.18,2.18V63.08a2.18,2.18,0,0,1-2.18,2.18H99a2.19,2.19,0,0,1-2.19-2.19V11.77A2.18,2.18,0,0,1,99,9.58Z"/><rect class="cls-14" x="100.7" y="13.49" width="12" height="47.86" rx="3.91"/><path class="cls-1" d="M109.45,18.53a1.94,1.94,0,0,0-2-1.9h-1.53a1.94,1.94,0,0,0-2,1.9V38.85h5.49Z"/><path class="cls-7" d="M104,38.85v8.63a1.94,1.94,0,0,0,2,1.91h1.53a1.94,1.94,0,0,0,2-1.91V38.85Z"/><path class="cls-7" d="M103.89,55.64a2.82,2.82,0,1,1,2.82,2.72A2.76,2.76,0,0,1,103.89,55.64Z"/><path class="cls-2" d="M101.07,62.56a1.22,1.22,0,1,1-1.21-1.21A1.22,1.22,0,0,1,101.07,62.56Z"/><path class="cls-2" d="M115.13,62.56a1.21,1.21,0,1,1-1.21-1.21A1.22,1.22,0,0,1,115.13,62.56Z"/><path class="cls-2" d="M101.07,12.93a1.22,1.22,0,1,1-1.21-1.21A1.21,1.21,0,0,1,101.07,12.93Z"/><path class="cls-2" d="M115.13,12.93a1.21,1.21,0,1,1-1.21-1.21A1.21,1.21,0,0,1,115.13,12.93Z"/><rect class="cls-6" x="103.96" y="34.31" width="5.49" height="4.54"/><rect class="cls-1" x="55.8" y="35.03" width="36.78" height="29.9" rx="2.32"/><path class="cls-2" d="M60,37.81a1.26,1.26,0,1,1-1.26-1.26A1.25,1.25,0,0,1,60,37.81Z"/><path class="cls-2" d="M90.93,37.84a1.26,1.26,0,1,1-1.26-1.26A1.26,1.26,0,0,1,90.93,37.84Z"/><path class="cls-2" d="M60,62.13a1.26,1.26,0,1,1-1.26-1.26A1.25,1.25,0,0,1,60,62.13Z"/><path class="cls-2" d="M90.93,62.16a1.26,1.26,0,1,1-1.26-1.26A1.26,1.26,0,0,1,90.93,62.16Z"/><rect class="cls-6" x="61.85" y="41.07" width="7.08" height="7.08"/><polygon class="cls-17" points="68.92 48.15 61.85 48.15 61.85 41.07 68.92 48.15"/><polygon class="cls-17" points="61.85 48.15 68.92 48.15 68.92 41.07 61.85 48.15"/><rect class="cls-7" x="63.06" y="42.28" width="4.66" height="4.66" rx="0.41"/><rect class="cls-14" x="70.58" y="41.07" width="7.08" height="7.08"/><polygon class="cls-17" points="77.66 48.15 70.58 48.15 70.58 41.07 77.66 48.15"/><polygon class="cls-17" points="70.58 48.15 77.66 48.15 77.66 41.07 70.58 48.15"/><rect class="cls-5" x="71.79" y="42.28" width="4.66" height="4.66" rx="0.41"/><rect class="cls-18" x="79.47" y="41.07" width="7.08" height="7.08"/><polygon class="cls-18" points="86.54 48.15 79.47 48.15 79.47 41.07 86.54 48.15"/><polygon class="cls-18" points="79.47 48.15 86.54 48.15 86.54 41.07 79.47 48.15"/><rect class="cls-18" x="80.68" y="42.28" width="4.66" height="4.66" rx="0.41"/><rect class="cls-8" x="79.47" y="41.07" width="7.08" height="7.08"/><polygon class="cls-17" points="86.54 48.15 79.47 48.15 79.47 41.07 86.54 48.15"/><polygon class="cls-17" points="79.47 48.15 86.54 48.15 86.54 41.07 79.47 48.15"/><rect class="cls-9" x="80.68" y="42.28" width="4.66" height="4.66" rx="0.41"/><path class="cls-2" d="M86.54,53H61.87a.73.73,0,1,1,0-1.45H86.54a.73.73,0,1,1,0,1.45Z"/><path class="cls-2" d="M86.54,55.52H61.87a.73.73,0,0,1-.73-.73.73.73,0,0,1,.73-.72H86.54a.73.73,0,0,1,.73.72A.73.73,0,0,1,86.54,55.52Z"/><path class="cls-2" d="M86.54,58.05H61.87a.73.73,0,0,1-.73-.73.73.73,0,0,1,.73-.72H86.54a.73.73,0,0,1,.73.72A.73.73,0,0,1,86.54,58.05Z"/><rect class="cls-1" x="289.76" width="127.09" height="76.33" rx="5.74"/><rect class="cls-2" x="294.84" y="4.7" width="116.92" height="66.94" rx="2.22"/><rect class="cls-3" x="296.91" y="7.05" width="112.87" height="62.24" rx="0.56"/><rect class="cls-1" x="336.57" y="39.73" width="9.51" height="20.25" rx="0.65"/><rect class="cls-8" x="338.23" y="41.39" width="6.19" height="16.93"/><rect class="cls-9" x="338.23" y="49.32" width="6.19" height="6.59"/><rect class="cls-1" x="300.48" y="36.53" width="30.69" height="29.64" rx="2.58"/><circle class="cls-14" cx="315.82" cy="51.35" r="11.17" transform="translate(-4.15 51.07) rotate(-9.19)"/><circle class="cls-5" cx="315.82" cy="51.35" r="7.88"/><path class="cls-1" d="M311.73,55.38a2.07,2.07,0,0,1-.43-2.4L313,49.47a2,2,0,0,1,.92-.92l3.59-1.8a2,2,0,0,1,2.37.38,2.06,2.06,0,0,1,.41,2.4l-1.82,3.61a2.07,2.07,0,0,1-.93.92l-3.48,1.71A2.05,2.05,0,0,1,311.73,55.38Z"/><circle class="cls-14" cx="315.75" cy="51.32" r="1.46"/><path class="cls-14" d="M319.32,49.23a.39.39,0,0,1-.28-.12L318,48a.4.4,0,0,1,0-.56.39.39,0,0,1,.55,0l1.09,1.09a.4.4,0,0,1-.28.67Z"/><path class="cls-14" d="M313.27,55.28a.43.43,0,0,1-.28-.11l-1.08-1.09a.38.38,0,0,1,0-.55.39.39,0,0,1,.55,0l1.08,1.08a.4.4,0,0,1,0,.56A.39.39,0,0,1,313.27,55.28Z"/><path class="cls-2" d="M304.65,39.38a1.21,1.21,0,1,1-1.21-1.21A1.21,1.21,0,0,1,304.65,39.38Z"/><path class="cls-2" d="M304.65,63.2A1.21,1.21,0,1,1,303.44,62,1.21,1.21,0,0,1,304.65,63.2Z"/><path class="cls-2" d="M329.41,39.38a1.21,1.21,0,1,1-1.21-1.21A1.21,1.21,0,0,1,329.41,39.38Z"/><path class="cls-2" d="M329.41,63.2A1.21,1.21,0,1,1,328.2,62,1.21,1.21,0,0,1,329.41,63.2Z"/><rect class="cls-1" x="300.64" y="10.76" width="46.12" height="22.01" rx="2.21"/><path class="cls-2" d="M342.88,13.45a1.22,1.22,0,0,0,2.43,0,1.22,1.22,0,1,0-2.43,0Z"/><path class="cls-2" d="M342.88,30.19A1.22,1.22,0,1,0,344.09,29,1.21,1.21,0,0,0,342.88,30.19Z"/><path class="cls-2" d="M302.12,13.45a1.21,1.21,0,1,0,1.21-1.22A1.21,1.21,0,0,0,302.12,13.45Z"/><path class="cls-2" d="M302.12,30.19A1.21,1.21,0,1,0,303.33,29,1.21,1.21,0,0,0,302.12,30.19Z"/><circle class="cls-2" cx="332.74" cy="21.98" r="7.1"/><path class="cls-1" d="M332.74,27.69A5.71,5.71,0,1,1,338.45,22,5.7,5.7,0,0,1,332.74,27.69Z"/><path class="cls-2" d="M332.74,26.31A4.33,4.33,0,1,1,337.06,22,4.33,4.33,0,0,1,332.74,26.31Z"/><path class="cls-7" d="M332.74,25.14A3.16,3.16,0,1,1,335.89,22,3.15,3.15,0,0,1,332.74,25.14Z"/><path class="cls-6" d="M331.88,22.84a.93.93,0,0,1,1.85,0l.43,3.2h-2.72Z"/><path class="cls-7" d="M332.8,27.6a1.37,1.37,0,0,0,1.37-1.37,1.21,1.21,0,0,0,0-.19,1.36,1.36,0,0,0-1.36-1.18A1.38,1.38,0,0,0,331.44,26c0,.06,0,.13,0,.19A1.37,1.37,0,0,0,332.8,27.6Z"/><path class="cls-2" d="M315.12,14.88a7.1,7.1,0,1,0,7.1,7.1A7.1,7.1,0,0,0,315.12,14.88Z"/><path class="cls-1" d="M315.12,16.27A5.71,5.71,0,1,0,320.83,22,5.71,5.71,0,0,0,315.12,16.27Z"/><path class="cls-2" d="M315.12,17.66A4.33,4.33,0,1,0,319.44,22,4.32,4.32,0,0,0,315.12,17.66Z"/><path class="cls-9" d="M315.12,18.82A3.16,3.16,0,1,0,318.28,22,3.17,3.17,0,0,0,315.12,18.82Z"/><path class="cls-8" d="M314.26,21.13a1,1,0,0,0,.93.8.93.93,0,0,0,.92-.8l.44-3.21h-2.72Z"/><path class="cls-9" d="M315.19,16.37a1.37,1.37,0,0,1,1.37,1.37c0,.06,0,.12,0,.18a1.37,1.37,0,0,1-2.72,0,1.09,1.09,0,0,1,0-.18A1.37,1.37,0,0,1,315.19,16.37Z"/><rect class="cls-1" x="352.01" y="10.76" width="52.83" height="54.74" rx="3.42"/><rect class="cls-11" x="357.49" y="16.24" width="41.87" height="43.78"/><path class="cls-2" d="M354.3,14.07a1.21,1.21,0,1,0,1.21-1.21A1.22,1.22,0,0,0,354.3,14.07Z"/><path class="cls-2" d="M400,14.07a1.22,1.22,0,1,0,1.22-1.21A1.22,1.22,0,0,0,400,14.07Z"/><path class="cls-2" d="M354.3,62a1.21,1.21,0,1,0,1.21-1.21A1.21,1.21,0,0,0,354.3,62Z"/><path class="cls-2" d="M400,62a1.22,1.22,0,1,0,1.22-1.21A1.22,1.22,0,0,0,400,62Z"/><path class="cls-1" d="M382.75,46.26a.39.39,0,0,1-.39-.39V33.18a.38.38,0,0,1,.39-.39.39.39,0,0,1,.39.39V45.87A.4.4,0,0,1,382.75,46.26Z"/><path class="cls-1" d="M374,46.26a.4.4,0,0,1-.39-.39V33.18a.4.4,0,0,1,.79,0V45.87A.4.4,0,0,1,374,46.26Z"/><path class="cls-1" d="M380.33,54.92h-3.87a.34.34,0,0,1-.33-.32l-.36-4.42a.34.34,0,0,1,.31-.36.32.32,0,0,1,.36.31l.33,4.11H380l.33-4.11a.33.33,0,0,1,.36-.31.32.32,0,0,1,.31.36l-.35,4.42A.35.35,0,0,1,380.33,54.92Z"/><path class="cls-1" d="M381.91,50.49h-7a.91.91,0,0,1-.91-.91V48.27a.34.34,0,1,1,.67,0v1.31a.24.24,0,0,0,.24.24h7a.24.24,0,0,0,.24-.24V48.27a.34.34,0,1,1,.67,0v1.31A.91.91,0,0,1,381.91,50.49Z"/><path class="cls-1" d="M373.66,30.92l-.12,0a.39.39,0,0,1-.26-.49l2.27-7.35a.89.89,0,0,1,.84-.62h4a.88.88,0,0,1,.84.62l2.27,7.35a.39.39,0,0,1-.26.49.39.39,0,0,1-.49-.26l-2.27-7.35a.1.1,0,0,0-.09-.07h-4a.1.1,0,0,0-.09.07L374,30.64A.39.39,0,0,1,373.66,30.92Z"/><path class="cls-1" d="M379.64,42.38H377a1.31,1.31,0,0,1,0-2.62h2.61a1.31,1.31,0,1,1,0,2.62ZM377,40.54a.53.53,0,0,0,0,1.06h2.61a.53.53,0,0,0,.52-.54.52.52,0,0,0-.52-.52Z"/><path class="cls-1" d="M383.32,33.27h-9.85a.49.49,0,0,1-.49-.5V30.63a.5.5,0,0,1,.49-.5h9.85a.5.5,0,0,1,.49.5v2.14A.49.49,0,0,1,383.32,33.27Zm-9.56-.78H383V30.92h-9.27Z"/><path class="cls-1" d="M383.32,48.66h-9.85a.5.5,0,0,1-.49-.5V46a.49.49,0,0,1,.49-.49h9.85a.49.49,0,0,1,.49.49v2.15A.5.5,0,0,1,383.32,48.66Zm-9.56-.79H383V46.3h-9.27Z"/><path class="cls-1" d="M378.39,37.91a1.76,1.76,0,1,1,1.76-1.76A1.76,1.76,0,0,1,378.39,37.91Zm0-2.73a1,1,0,1,0,1,1A1,1,0,0,0,378.39,35.18Z"/><path class="cls-1" d="M371.69,51h-2.08a.57.57,0,0,1-.57-.57V45.93a.39.39,0,0,1,.4-.39h2.43a.38.38,0,0,1,.39.39v4.49A.56.56,0,0,1,371.69,51Zm-1.86-.78h1.65V46.32h-1.65Z"/><path class="cls-1" d="M387.43,51h-2.08a.56.56,0,0,1-.57-.57V45.93a.38.38,0,0,1,.39-.39h2.44a.39.39,0,0,1,.39.39v4.49A.57.57,0,0,1,387.43,51Zm-1.87-.78h1.65V46.32h-1.65Z"/><path class="cls-1" d="M379.44,23.22a.39.39,0,0,1-.39-.39v-3a.39.39,0,0,1,.39-.39.4.4,0,0,1,.39.39v3A.4.4,0,0,1,379.44,23.22Z"/><path class="cls-1" d="M373.37,47.48h-1.5a.39.39,0,0,1-.39-.39.38.38,0,0,1,.39-.39h1.5a.39.39,0,0,1,.39.39A.4.4,0,0,1,373.37,47.48Z"/><path class="cls-1" d="M385.17,47.48h-1.75a.4.4,0,0,1-.39-.39.39.39,0,0,1,.39-.39h1.75a.38.38,0,0,1,.39.39A.39.39,0,0,1,385.17,47.48Z"/><path class="cls-10" d="M384.45,40.54a.39.39,0,0,1-.27-.67L387.1,37a.39.39,0,0,1,.55,0,.4.4,0,0,1,0,.56l-2.92,2.92A.43.43,0,0,1,384.45,40.54Z"/><path class="cls-10" d="M397.09,37.62h-9.72a.39.39,0,0,1,0-.78h9.72a.39.39,0,1,1,0,.78Z"/><path class="cls-10" d="M397.09,36H389.8a.4.4,0,0,1,0-.79h7.29a.4.4,0,1,1,0,.79Z"/><path class="cls-10" d="M397.09,34.58h-5.56a.39.39,0,0,1,0-.78h5.56a.39.39,0,1,1,0,.78Z"/><path class="cls-10" d="M397.09,33.15h-7.65a.4.4,0,0,1,0-.79h7.65a.4.4,0,1,1,0,.79Z"/><path class="cls-10" d="M373,27.07a.39.39,0,0,1-.28-.12L369.82,24a.39.39,0,0,1,0-.55.4.4,0,0,1,.56,0l2.92,2.92a.4.4,0,0,1-.28.67Z"/><path class="cls-10" d="M370.1,24.15h-10a.4.4,0,0,1-.4-.39.39.39,0,0,1,.4-.39h10a.38.38,0,0,1,.39.39A.39.39,0,0,1,370.1,24.15Z"/><path class="cls-10" d="M367.59,22.54h-7.47a.39.39,0,0,1-.4-.39.4.4,0,0,1,.4-.39h7.47a.4.4,0,0,1,.39.39A.39.39,0,0,1,367.59,22.54Z"/><path class="cls-10" d="M370.1,21.11h-10a.4.4,0,0,1-.4-.39.39.39,0,0,1,.4-.39h10a.38.38,0,0,1,.39.39A.39.39,0,0,1,370.1,21.11Z"/><path class="cls-10" d="M366.29,19.61h-6.17a.33.33,0,0,1-.33-.33.32.32,0,0,1,.33-.32h6.17a.32.32,0,0,1,.33.32A.33.33,0,0,1,366.29,19.61Z"/><path class="cls-10" d="M370.65,45.16a.36.36,0,0,1-.27-.12l-2.92-2.92a.38.38,0,0,1,0-.55.39.39,0,0,1,.55,0l2.92,2.92a.4.4,0,0,1-.28.67Z"/><path class="cls-10" d="M367.73,42.24h-7.61a.4.4,0,1,1,0-.79h7.61a.4.4,0,1,1,0,.79Z"/><path class="cls-10" d="M365.22,40.63h-5.1a.39.39,0,0,1-.4-.39.4.4,0,0,1,.4-.39h5.1a.39.39,0,0,1,.39.39A.38.38,0,0,1,365.22,40.63Z"/><path class="cls-10" d="M367.73,39.2h-7.61a.4.4,0,1,1,0-.79h7.61a.4.4,0,1,1,0,.79Z"/><path class="cls-10" d="M363.92,37.7h-3.8a.33.33,0,0,1-.33-.33.32.32,0,0,1,.33-.32h3.8a.32.32,0,0,1,.33.32A.33.33,0,0,1,363.92,37.7Z"/><path class="cls-10" d="M370.65,58.49h-9.94a1.45,1.45,0,0,1,0-2.9h9.94a1.45,1.45,0,0,1,0,2.9Zm-9.94-2.12a.67.67,0,0,0,0,1.34h9.94a.67.67,0,0,0,0-1.34Z"/><path class="cls-10" d="M396.85,58.49A1.45,1.45,0,1,1,398.3,57,1.45,1.45,0,0,1,396.85,58.49Zm0-2.12a.67.67,0,1,0,.67.67A.67.67,0,0,0,396.85,56.37Z"/><path class="cls-10" d="M392.8,58.49A1.45,1.45,0,1,1,394.26,57,1.45,1.45,0,0,1,392.8,58.49Zm0-2.12a.67.67,0,1,0,.67.67A.67.67,0,0,0,392.8,56.37Z"/><path class="cls-10" d="M388.76,58.49A1.45,1.45,0,1,1,390.21,57,1.45,1.45,0,0,1,388.76,58.49Zm0-2.12a.67.67,0,1,0,.67.67A.67.67,0,0,0,388.76,56.37Z"/></g></g></svg>