<svg width="39" height="41" viewBox="0 0 39 41" fill="none" xmlns="http://www.w3.org/2000/svg">
<path d="M36.8492 14.361C37.572 13.1995 38.1591 11.8103 38.2218 10.3073C38.2729 9.0833 37.8202 7.87322 36.9795 6.98736C36.1499 6.11306 35.0352 5.62439 33.8409 5.6115C33.8243 5.61134 33.8081 5.61126 33.7917 5.61126C32.7401 5.61126 31.7452 5.97548 30.9479 6.64447C27.6748 4.11908 23.6143 2.73275 19.4671 2.73275C16.7602 2.73275 14.0677 3.32376 11.6231 4.44509C11.5332 3.42712 11.1021 2.45376 10.3959 1.70947C9.56619 0.835093 8.4515 0.346577 7.25728 0.333687C7.24056 0.333452 7.22439 0.333374 7.20791 0.333374C6.03212 0.333374 4.92627 0.787593 4.08939 1.61548C3.2408 2.45494 2.77338 3.57478 2.77338 4.76845C2.77338 6.7415 3.69947 8.53376 4.70087 9.89509C3.52595 11.3835 2.58783 13.0303 1.90994 14.796C1.79416 15.0977 1.94486 15.4361 2.24642 15.552C2.31548 15.5784 2.38627 15.591 2.45603 15.591C2.69119 15.591 2.91306 15.4481 3.00244 15.2154C3.60064 13.6573 4.41533 12.1977 5.42775 10.8677C5.41377 11.0055 5.40478 11.1442 5.40478 11.2823V14.1254C5.40478 14.6855 5.71306 15.1945 6.20931 15.4542C6.42877 15.5691 6.66728 15.6258 6.90501 15.6258C7.2047 15.6258 7.50314 15.5354 7.75978 15.3573L9.85697 13.9012C10.4438 13.4938 11.1317 13.2784 11.8463 13.2784H14.5453C15.5922 13.2784 16.5764 12.8707 17.3167 12.1305L19.9802 9.46705C20.8751 8.57205 20.9245 7.12384 20.0926 6.16986L18.7956 4.68275C18.6127 4.47306 18.5391 4.1933 18.5829 3.92705C18.8773 3.9122 19.172 3.90298 19.4671 3.90298C23.3229 3.90298 27.0981 5.18134 30.1534 7.5108C29.6365 8.249 29.3572 9.12541 29.3572 10.0464C29.3572 10.8573 29.5145 11.6371 29.7683 12.3696C29.5957 13.6425 29.782 14.9341 30.3085 16.1064L31.447 18.641C32.0567 19.9982 33.412 20.8753 34.9001 20.8753C35.6552 20.8753 36.3856 20.6526 37.0121 20.2314L37.0484 20.207C37.0808 20.6463 37.0972 21.0885 37.0972 21.5331C37.0972 31.2545 29.1884 39.1633 19.467 39.1633C9.74572 39.1633 1.83689 31.2543 1.83689 21.533C1.83689 20.1686 1.99322 18.8098 2.30158 17.4942C2.37533 17.1795 2.18009 16.8648 1.86548 16.791C1.55088 16.7169 1.23595 16.9124 1.16228 17.2271C0.833375 18.6302 0.666656 20.0789 0.666656 21.5331C0.666656 26.5549 2.62228 31.276 6.17322 34.827C9.72408 38.3778 14.4452 40.3334 19.467 40.3334C24.4888 40.3334 29.21 38.3778 32.7609 34.8269C36.3118 31.276 38.2674 26.5547 38.2674 21.533C38.2674 19.0479 37.7895 16.6363 36.8492 14.361ZM4.91244 2.44736C5.52845 1.83791 6.34252 1.50361 7.2083 1.50361C7.22033 1.50361 7.23244 1.50369 7.24455 1.50384C8.11939 1.51322 8.93705 1.87228 9.54689 2.51494C10.1708 3.17244 10.5069 4.07111 10.4689 4.98064C10.3601 7.58798 8.26447 9.93494 7.36845 10.8228C7.28025 10.9102 7.13681 10.9104 7.04908 10.8234C6.11541 9.89814 3.94361 7.45595 3.94361 4.76845C3.94361 3.8897 4.28767 3.06541 4.91244 2.44736ZM17.9136 5.45181L19.2106 6.939C19.6396 7.43095 19.6142 8.17791 19.1526 8.63947L16.4892 11.3029C15.9699 11.8222 15.2796 12.1081 14.5453 12.1081H11.8463C10.892 12.1081 9.97337 12.3958 9.18962 12.9399L7.09244 14.396C6.9447 14.4988 6.80509 14.4451 6.75181 14.4173C6.69869 14.3895 6.57517 14.3053 6.57517 14.1254V11.9063C6.77337 12.0066 6.9908 12.0574 7.20845 12.0574C7.5647 12.0574 7.92103 11.923 8.19236 11.6542C9.32087 10.5357 11.1624 8.36111 11.564 5.77142C13.385 4.85728 15.3695 4.26494 17.4025 4.02517C17.3902 4.53798 17.5642 5.05111 17.9136 5.45181ZM33.792 6.78142C33.8041 6.78142 33.8162 6.7815 33.8282 6.78166C34.7031 6.79103 35.5208 7.15017 36.1306 7.79283C36.7545 8.45033 37.0906 9.349 37.0527 10.2585C36.9438 12.8658 34.8482 15.2127 33.9522 16.1007C33.864 16.1881 33.7206 16.1883 33.6328 16.1013C32.6992 15.176 30.5274 12.7338 30.5274 10.0463C30.5274 9.16759 30.8715 8.34322 31.4963 7.72517C32.1122 7.1158 32.9262 6.78142 33.792 6.78142ZM36.3591 19.2601C35.9263 19.5511 35.4217 19.7049 34.9001 19.7049C33.8721 19.7049 32.9356 19.099 32.5145 18.1613L31.376 15.6267C31.2763 15.4047 31.192 15.1774 31.1219 14.9464C31.6992 15.7666 32.3175 16.4454 32.8091 16.9325C33.0801 17.201 33.436 17.3352 33.792 17.3352C34.1482 17.3352 34.5045 17.2007 34.7759 16.9319C35.1463 16.5648 35.5937 16.0831 36.0418 15.5111C36.4418 16.6101 36.7292 17.7406 36.902 18.8951L36.3591 19.2601Z" fill="white"/>
<path d="M33.7923 12.66C35.1537 12.66 36.2612 11.5524 36.2612 10.1911C36.2612 8.82975 35.1537 7.72217 33.7923 7.72217C32.4309 7.72217 31.3234 8.82975 31.3234 10.1911C31.3234 11.5524 32.4309 12.66 33.7923 12.66ZM33.7923 8.89232C34.5084 8.89232 35.091 9.4749 35.091 10.191C35.091 10.9071 34.5084 11.4897 33.7923 11.4897C33.0762 11.4897 32.4937 10.9071 32.4937 10.191C32.4937 9.4749 33.0762 8.89232 33.7923 8.89232Z" fill="white"/>
<path d="M24.8716 13.1276C24.0419 12.2533 22.9273 11.7646 21.733 11.7517C21.7164 11.7515 21.7002 11.7515 21.6837 11.7515C20.508 11.7515 19.4021 12.2057 18.5652 13.0336C17.9324 13.6596 17.5119 14.4415 17.3388 15.2937C15.9949 15.2353 14.6914 15.8593 13.8991 16.9787L11.933 19.7558C11.1658 20.8396 11.0702 22.2442 11.6624 23.4131C11.4123 23.9738 11.2797 24.5855 11.2797 25.2186C11.2797 27.796 12.8594 30.0642 14.1235 31.4667L13.9962 34.9255C13.9659 35.7504 14.3492 36.5287 15.0216 37.0074C15.4447 37.3087 15.9423 37.4596 16.4401 37.4596C16.9284 37.4595 17.417 37.3144 17.8354 37.0237L23.2213 33.282C24.06 32.6994 24.7842 31.9813 25.3741 31.1481L27.0001 28.8514C27.1868 28.5876 27.1244 28.2224 26.8605 28.0357C26.5969 27.8489 26.2316 27.9114 26.0449 28.1751L24.4189 30.472C23.9077 31.194 23.2802 31.8162 22.5535 32.321L17.1676 36.0627C16.7268 36.3687 16.1373 36.3654 15.7003 36.0542C15.3497 35.8045 15.1498 35.3987 15.1656 34.9685L15.2609 32.4311C15.4076 32.4811 15.5608 32.5076 15.7144 32.5076C16.0706 32.5076 16.427 32.3731 16.6983 32.1042C17.933 30.8805 20.0227 28.3926 20.1442 25.4796C20.1952 24.2555 19.7424 23.0454 18.9018 22.1596C18.0721 21.2852 16.9574 20.7966 15.7631 20.7837C14.5723 20.7694 13.4439 21.2262 12.5955 22.0657C12.5559 22.1047 12.5181 22.1451 12.4803 22.1854C12.3837 21.5818 12.5199 20.9519 12.888 20.432L14.854 17.6548C15.4081 16.8722 16.3162 16.4332 17.2551 16.4628C17.3809 19.3597 19.4513 21.8345 20.7009 23.0728C20.9719 23.3413 21.3278 23.4755 21.6838 23.4755C22.0401 23.4755 22.3965 23.3412 22.6678 23.0722C23.1773 22.5673 23.832 21.8468 24.4343 20.9705L27.4704 23.1197C27.8535 23.391 28.108 23.7951 28.1873 24.2579C28.2664 24.7206 28.1606 25.1865 27.8894 25.5696L27.4625 26.1726C27.2758 26.4363 27.3382 26.8015 27.6019 26.9883C27.7047 27.0609 27.8226 27.0959 27.9395 27.0959C28.123 27.0959 28.3036 27.0099 28.4176 26.8488L28.8444 26.2458C29.2963 25.6076 29.4726 24.8315 29.3407 24.0606C29.2089 23.2898 28.7848 22.6165 28.1465 22.1647L25.051 19.9733C25.6258 18.9279 26.0602 17.7289 26.1137 16.4476C26.165 15.2236 25.7122 14.0135 24.8716 13.1276ZM15.7146 21.9537C15.7266 21.9537 15.7387 21.9537 15.7507 21.9539C16.6256 21.9633 17.4433 22.3224 18.0531 22.9651C18.677 23.6226 19.0131 24.5212 18.9752 25.4308C18.8664 28.0382 16.7707 30.385 15.8746 31.273C15.7866 31.3604 15.6433 31.3605 15.5554 31.2734C14.6216 30.3483 12.4499 27.9063 12.4499 25.2186C12.4499 24.3399 12.794 23.5156 13.4187 22.8975C14.0348 22.2879 14.8488 21.9537 15.7146 21.9537ZM21.8442 22.241C21.7562 22.3285 21.6127 22.3287 21.5248 22.2415C20.5912 21.3162 18.4194 18.874 18.4194 16.1866C18.4194 15.3079 18.7635 14.4835 19.3883 13.8654C20.0043 13.256 20.8183 12.9217 21.6841 12.9217C21.6962 12.9217 21.7083 12.9218 21.7203 12.9219C22.5952 12.9313 23.4129 13.2904 24.0227 13.9331C24.6466 14.5906 24.9827 15.4893 24.9448 16.3987C24.8359 19.0062 22.7402 21.353 21.8442 22.241Z" fill="white"/>
<path d="M23.5681 15.7461C23.2449 15.7461 22.9829 16.008 22.9829 16.3312C22.9829 17.0473 22.4004 17.6299 21.6843 17.6299C20.9682 17.6299 20.3856 17.0473 20.3856 16.3312C20.3856 15.6151 20.9682 15.0325 21.6843 15.0325C21.7711 15.0325 21.8579 15.0411 21.942 15.0581C22.2592 15.1213 22.5673 14.9164 22.631 14.5996C22.6946 14.2828 22.4893 13.9744 22.1726 13.9107C22.0126 13.8786 21.8483 13.8623 21.6843 13.8623C20.3229 13.8623 19.2154 14.9699 19.2154 16.3312C19.2154 17.6925 20.3229 18.8001 21.6843 18.8001C23.0457 18.8001 24.1532 17.6925 24.1532 16.3312C24.1533 16.0079 23.8913 15.7461 23.5681 15.7461Z" fill="white"/>
<path d="M15.7148 27.8323C17.0762 27.8323 18.1837 26.7248 18.1837 25.3634C18.1837 24.0021 17.0761 22.8945 15.7148 22.8945C14.3535 22.8945 13.2459 24.0021 13.2459 25.3634C13.2459 26.7248 14.3534 27.8323 15.7148 27.8323ZM15.7148 24.0647C16.4309 24.0647 17.0135 24.6473 17.0135 25.3634C17.0135 26.0795 16.4309 26.662 15.7148 26.662C14.9987 26.662 14.4161 26.0795 14.4161 25.3634C14.4161 24.6473 14.9987 24.0647 15.7148 24.0647Z" fill="white"/>
<path d="M9.67751 4.91324C9.67751 3.55184 8.56994 2.44434 7.20861 2.44434C5.84728 2.44434 4.73962 3.55191 4.73962 4.91324C4.73962 6.27457 5.8472 7.38207 7.20853 7.38207C8.56986 7.38207 9.67751 6.27457 9.67751 4.91324ZM5.90994 4.91324C5.90994 4.19715 6.49251 3.61457 7.20861 3.61457C7.9247 3.61457 8.50728 4.19715 8.50728 4.91324C8.50728 5.62934 7.9247 6.21184 7.20861 6.21184C6.49251 6.21184 5.90994 5.62934 5.90994 4.91324Z" fill="white"/>
</svg>
