<svg width="28" height="40" viewBox="0 0 28 40" fill="none" xmlns="http://www.w3.org/2000/svg">
<path d="M13.5484 33.5486C12.4811 33.5486 11.6129 34.4168 11.6129 35.4841C11.6129 36.5513 12.4811 37.4196 13.5484 37.4196C14.6157 37.4196 15.4839 36.5513 15.4839 35.4841C15.4839 34.4168 14.6157 33.5486 13.5484 33.5486ZM13.5484 36.1292C13.1926 36.1292 12.9032 35.8399 12.9032 35.4841C12.9032 35.1283 13.1926 34.8389 13.5484 34.8389C13.9042 34.8389 14.1936 35.1283 14.1936 35.4841C14.1936 35.8399 13.9042 36.1292 13.5484 36.1292Z" fill="white"/>
<path d="M13.5484 5.2041C13.9278 5.2041 14.2366 4.89537 14.2366 4.51593C14.2366 4.13649 13.9278 3.82776 13.5484 3.82776C13.169 3.82776 12.8602 4.13649 12.8602 4.51593C12.8602 4.89537 13.169 5.2041 13.5484 5.2041Z" fill="white"/>
<path d="M7.52688 13.7635H19.5699C19.9262 13.7635 20.215 13.4746 20.215 13.1183C20.215 12.762 19.9262 12.4731 19.5699 12.4731H7.52688C7.17057 12.4731 6.88171 12.762 6.88171 13.1183C6.88171 13.4746 7.17057 13.7635 7.52688 13.7635Z" fill="white"/>
<path d="M7.52688 17.2043H19.5699C19.9262 17.2043 20.215 16.9154 20.215 16.5591C20.215 16.2028 19.9262 15.9139 19.5699 15.9139H7.52688C7.17057 15.9139 6.88171 16.2028 6.88171 16.5591C6.88171 16.9154 7.17057 17.2043 7.52688 17.2043Z" fill="white"/>
<path d="M7.52688 20.6452H19.5699C19.9262 20.6452 20.215 20.3563 20.215 20C20.215 19.6437 19.9262 19.3549 19.5699 19.3549H7.52688C7.17057 19.3549 6.88171 19.6437 6.88171 20C6.88171 20.3563 7.17057 20.6452 7.52688 20.6452Z" fill="white"/>
<path d="M7.52688 24.086H19.5699C19.9262 24.086 20.215 23.7971 20.215 23.4408C20.215 23.0845 19.9262 22.7957 19.5699 22.7957H7.52688C7.17057 22.7957 6.88171 23.0845 6.88171 23.4408C6.88171 23.7971 7.17057 24.086 7.52688 24.086Z" fill="white"/>
<path d="M7.52688 27.5269H13.5484C13.9047 27.5269 14.1935 27.238 14.1935 26.8817C14.1935 26.5254 13.9047 26.2366 13.5484 26.2366H7.52688C7.17057 26.2366 6.88171 26.5254 6.88171 26.8817C6.88171 27.238 7.17057 27.5269 7.52688 27.5269Z" fill="white"/>
<path d="M23.0108 0H4.08602C1.83303 0 0 1.83303 0 4.08602V35.914C0 38.167 1.83303 40 4.08602 40H23.0108C25.2637 40 27.0968 38.167 27.0968 35.914V4.08602C27.0968 1.83303 25.2637 0 23.0108 0ZM25.8065 35.914C25.8065 37.4555 24.5523 38.7097 23.0108 38.7097H4.08602C2.54452 38.7097 1.29032 37.4555 1.29032 35.914V4.08602C1.29032 2.54452 2.54452 1.29032 4.08602 1.29032H23.0108C24.5523 1.29032 25.8065 2.54452 25.8065 4.08602V35.914Z" fill="white"/>
<path d="M23.871 7.74158H3.22582C2.86952 7.74158 2.58066 8.03044 2.58066 8.38674V31.6133C2.58066 31.9696 2.86952 32.2585 3.22582 32.2585H23.871C24.2273 32.2585 24.5161 31.9696 24.5161 31.6133V8.38674C24.5161 8.03044 24.2273 7.74158 23.871 7.74158ZM23.2258 30.9681H3.87098V9.0319H23.2258V30.9681Z" fill="white"/>
</svg>
