<svg width="39" height="40" viewBox="0 0 39 40" fill="none" xmlns="http://www.w3.org/2000/svg">
<path d="M8.16661 4.99973C8.62661 4.99973 8.99997 4.62637 8.99997 4.16637C8.99997 3.70637 8.62661 3.33301 8.16661 3.33301C7.70661 3.33301 7.33325 3.70637 7.33325 4.16637C7.33325 4.62637 7.70661 4.99973 8.16661 4.99973Z" fill="white"/>
<path d="M23.1666 11.6666H29.8333C30.2933 11.6666 30.6666 11.2933 30.6666 10.8333C30.6666 10.3733 30.2933 10 29.8333 10H23.1666C22.7066 10 22.3333 10.3734 22.3333 10.8334C22.3333 11.2934 22.7066 11.6666 23.1666 11.6666Z" fill="white"/>
<path d="M23.1666 4.99965H29.8333C30.2933 4.99965 30.6666 4.62629 30.6666 4.16629C30.6666 3.70629 30.2933 3.33301 29.8333 3.33301H23.1666C22.7066 3.33301 22.3333 3.70637 22.3333 4.16637C22.3333 4.62637 22.7066 4.99965 23.1666 4.99965Z" fill="white"/>
<path d="M29.8333 21.667C30.2933 21.667 30.6666 21.2936 30.6666 20.8336V19.167C30.6666 18.707 30.2933 18.3336 29.8333 18.3336H20.6666V17.5004C20.6666 17.0404 20.2933 16.667 19.8333 16.667C19.3733 16.667 18.9999 17.0404 18.9999 17.5004V18.3337H9.83327C9.37327 18.3337 8.99991 18.7071 8.99991 19.1671V20.8337C8.99991 21.2937 9.37327 21.6671 9.83327 21.6671C10.2933 21.6671 10.6666 21.2937 10.6666 20.8337V20.0004H29V20.8337C28.9999 21.2937 29.3733 21.667 29.8333 21.667Z" fill="white"/>
<path d="M36.4999 23.333H23.1666C21.7882 23.333 20.6666 24.4546 20.6666 25.833V34.1664C20.6666 35.5447 21.7882 36.6664 23.1666 36.6664H28.9999V38.333H26.4999C26.0399 38.333 25.6666 38.7064 25.6666 39.1664C25.6666 39.6264 26.0399 39.9997 26.4999 39.9997H33.1666C33.6266 39.9997 33.9999 39.6264 33.9999 39.1664C33.9999 38.7064 33.6266 38.333 33.1666 38.333H30.6666V36.6664H36.4999C37.8783 36.6664 38.9999 35.5447 38.9999 34.1664V25.833C38.9999 24.4546 37.8782 23.333 36.4999 23.333ZM37.3332 34.1663C37.3332 34.6263 36.9582 34.9997 36.4999 34.9997H23.1666C22.7082 34.9997 22.3332 34.6263 22.3332 34.1663V33.3329H37.3332V34.1663ZM37.3332 31.6663H22.3332V25.8329C22.3332 25.3729 22.7082 24.9996 23.1666 24.9996H36.4999C36.9582 24.9997 37.3332 25.373 37.3332 25.833V31.6663Z" fill="white"/>
<path d="M16.4999 23.333H3.16657C1.78821 23.333 0.666565 24.4546 0.666565 25.833V34.1664C0.666565 35.5447 1.78821 36.6664 3.16657 36.6664H8.99993V38.333H6.49993C6.03993 38.333 5.66657 38.7064 5.66657 39.1664C5.66657 39.6264 6.03993 39.9997 6.49993 39.9997H13.1666C13.6266 39.9997 13.9999 39.6264 13.9999 39.1664C13.9999 38.7064 13.6266 38.333 13.1666 38.333H10.6666V36.6664H16.4999C17.8783 36.6664 18.9999 35.5447 18.9999 34.1664V25.833C18.9999 24.4546 17.8782 23.333 16.4999 23.333ZM17.3332 34.1663C17.3332 34.6263 16.9582 34.9997 16.4999 34.9997H3.16657C2.70821 34.9997 2.33321 34.6263 2.33321 34.1663V33.3329H17.3332V34.1663ZM17.3332 31.6663H2.33321V25.8329C2.33321 25.373 2.70821 24.9997 3.16657 24.9997H16.4999C16.9582 24.9997 17.3332 25.373 17.3332 25.833V31.6663Z" fill="white"/>
<path d="M8.16661 11.6666C8.62661 11.6666 8.99997 11.2933 8.99997 10.8333C8.99997 10.3733 8.62661 10 8.16661 10C7.70661 10 7.33325 10.3734 7.33325 10.8334C7.33325 11.2934 7.70661 11.6666 8.16661 11.6666Z" fill="white"/>
<path d="M6.49991 15H31.4999C32.8783 15 33.9999 13.8784 33.9999 12.5V9.16665C33.9999 8.52501 33.7499 7.94329 33.3499 7.50001C33.7499 7.05665 33.9999 6.47501 33.9999 5.83336V2.5C33.9999 1.12164 32.8783 0 31.4999 0H6.49991C5.12155 0 3.99991 1.12164 3.99991 2.5V5.83336C3.99991 6.47501 4.24991 7.05673 4.64991 7.50001C4.24991 7.94337 3.99991 8.52501 3.99991 9.16665V12.5C3.99991 13.8784 5.12163 15 6.49991 15ZM5.66663 2.5C5.66663 2.04 6.04163 1.66664 6.49999 1.66664H31.5C31.9583 1.66664 32.3333 2.04 32.3333 2.5V5.83336C32.3333 6.29337 31.9583 6.66673 31.4999 6.66673H6.49991C6.04155 6.66673 5.66655 6.29337 5.66655 5.83336V2.5H5.66663ZM5.66663 9.16665C5.66663 8.70665 6.04163 8.33329 6.49999 8.33329H31.5C31.9584 8.33329 32.3334 8.70665 32.3334 9.16665V12.5C32.3334 12.96 31.9584 13.3334 31.5 13.3334H6.49999C6.04163 13.3334 5.66663 12.96 5.66663 12.5V9.16665Z" fill="white"/>
</svg>
